<svg width="2269" height="507" viewBox="0 0 2269 507" fill="none" xmlns="http://www.w3.org/2000/svg">
<path d="M483.419 0.933372C482.886 1.33337 482.486 23.8667 482.486 50.9334V100H449.819H417.152L417.419 150.267L417.819 200.667L450.219 201.067L482.486 201.333V289.733C482.486 342.667 483.019 382.533 483.819 389.333C485.686 403.867 490.619 422.8 495.552 433.733C517.152 481.2 569.152 507.733 635.152 504.933C679.019 503.067 716.086 488.533 745.019 461.733L753.686 453.867L731.152 415.2C718.886 394 708.219 375.867 707.419 374.933C706.352 373.6 705.286 374 701.952 376.4C674.886 396.667 636.486 405.333 617.419 395.467C610.486 391.867 604.219 383.467 601.152 373.867C596.619 359.067 595.819 344.133 595.819 270.933V201.333H657.819H719.819V150.667V100H657.819H595.819V50V3.87593e-05H540.086C509.419 3.87593e-05 483.819 0.400039 483.419 0.933372Z" fill="white"/>
<path d="M1533.15 50.0005V100.001H1500.49H1467.82V150.667V201.334H1500.49H1533.15V292.934C1533.15 388.801 1533.55 396.801 1539.29 416.001C1555.42 470.401 1600.75 502.001 1667.15 504.934C1703.02 506.534 1737.82 499.067 1765.15 483.734C1773.55 479.201 1788.09 468.401 1797.55 459.734L1804.09 454.001L1781.15 414.667C1768.49 393.067 1757.82 374.934 1757.29 374.401C1756.75 373.867 1753.42 375.467 1749.82 378.134C1731.29 391.467 1709.55 398.934 1689.02 399.201C1677.29 399.334 1675.69 398.934 1668.49 395.334C1656.35 389.067 1650.89 379.201 1647.82 358.001C1647.15 352.801 1646.49 316.267 1646.49 275.067V201.334L1708.22 201.067L1769.82 200.667L1770.22 150.267L1770.49 100.001H1708.49H1646.49L1646.22 50.2672L1645.82 0.667194L1589.55 0.267194L1533.15 0.00052704V50.0005Z" fill="white"/>
<path d="M171.152 87.4665C109.419 93.8665 66.7523 110.8 31.419 142.933L25.1523 148.667L51.819 189.2C66.4857 211.467 78.7523 230 79.019 230.267C79.2857 230.533 84.619 227.467 90.7523 223.467C126.619 200.133 149.419 192.933 188.486 192.8C217.286 192.667 231.686 196.533 243.019 207.467C251.419 215.6 257.152 230.933 257.152 245.467V248.933L248.219 246.4C217.952 238 170.352 236.8 130.486 243.467C89.1523 250.4 45.5523 272 26.619 294.667C7.019 318.133 -1.51433 345.867 0.219002 380.533C3.819 454.133 57.2857 501.6 139.819 504.933C180.486 506.533 221.019 494.533 248.219 472.667L257.152 465.333V482.667V500H313.819H370.619L370.086 362.267C369.552 214.533 369.819 220.267 362.619 194.267C351.819 154.667 326.752 123.2 291.819 105.467C264.886 91.7332 246.752 87.8665 206.486 87.3332C189.952 87.1999 174.086 87.1999 171.152 87.4665ZM233.819 336.667C239.019 337.867 246.352 339.733 250.219 340.933L257.152 343.2V352.267C257.152 359.867 256.486 362.4 253.552 367.067C244.752 381.067 225.552 394.933 204.486 402.267C194.352 405.733 192.619 406 171.152 406C150.486 406 147.819 405.733 140.619 402.8C120.619 394.8 112.219 376.667 120.352 359.333C125.686 347.867 136.486 341.067 155.819 336.8C170.619 333.733 173.019 333.6 199.819 334.133C215.686 334.4 227.819 335.333 233.819 336.667Z" fill="white"/>
<path d="M928.485 88.1334C911.819 90.6667 894.085 98.1334 885.152 106.267L879.819 110.933V102.8V94.6667H823.152H766.485V297.333V500H823.152H879.819L880.085 367.067L880.485 234L884.752 225.333C890.352 213.867 896.619 206.8 905.285 202C911.552 198.667 914.219 198 925.285 197.6C942.219 196.933 951.152 199.333 958.619 206.8C961.685 209.867 964.485 211.733 965.152 211.2C967.152 208.933 1019.69 125.867 1020.62 123.467C1021.29 121.6 1019.15 118.8 1011.42 111.333C999.819 100.133 986.885 93.0667 972.619 90C960.352 87.4667 938.352 86.5334 928.485 88.1334Z" fill="white"/>
<path d="M1221.15 87.6006C1161.95 93.334 1116.35 111.067 1083.95 140.934L1075.42 148.667L1101.15 188.001C1115.29 209.601 1127.55 228.134 1128.49 229.067C1129.69 230.401 1132.35 229.201 1141.15 223.201C1157.02 212.801 1182.49 200.534 1195.15 197.467C1229.55 188.934 1266.75 190.801 1285.69 201.867C1298.49 209.334 1306.49 224.534 1306.49 241.467V249.201L1300.89 247.201C1282.89 240.801 1241.95 237.467 1211.15 240.001C1133.69 246.001 1078.09 276.667 1059.02 323.734C1052.09 340.801 1051.15 347.067 1051.15 373.334C1051.29 394.801 1051.69 399.467 1054.35 409.334C1060.62 432.401 1070.89 449.734 1087.95 466.001C1115.69 492.267 1152.35 505.334 1198.49 505.334C1236.49 505.334 1278.22 491.067 1300.49 470.534L1306.49 464.934V482.534V500.001H1363.95H1421.29L1420.75 364.267C1420.22 233.334 1420.09 228.134 1417.42 214.001C1410.35 176.801 1397.29 150.934 1374.75 129.067C1350.89 106.001 1325.15 94.134 1287.15 88.6673C1275.15 86.934 1234.62 86.2673 1221.15 87.6006ZM1275.15 335.334C1282.49 336.401 1292.49 338.534 1297.55 340.001L1306.49 342.801V353.201C1306.49 363.467 1306.35 364.001 1301.42 370.267C1292.62 381.201 1282.75 389.067 1268.62 396.134C1250.62 404.934 1240.22 407.067 1217.15 406.401C1202.89 405.867 1197.69 405.201 1191.95 402.934C1175.82 396.534 1168.89 388.534 1168.09 375.334C1167.82 370.667 1168.22 364.667 1169.15 362.001C1172.35 352.134 1183.15 343.467 1197.82 338.667C1213.82 333.467 1251.69 331.867 1275.15 335.334Z" fill="white"/>
<path d="M1967.02 101.201C1959.95 102.934 1953.95 107.601 1950.49 113.601C1947.29 119.067 1947.15 120.534 1946.75 146.667C1946.22 177.067 1947.29 185.601 1952.89 192.267C1959.02 199.467 1965.02 201.334 1983.55 201.334C2005.29 201.334 2011.69 198.801 2017.29 187.734C2019.55 183.334 2019.82 179.601 2019.82 151.467C2019.82 132.667 2019.29 118.667 2018.35 116.401C2016.62 111.734 2011.02 105.734 2005.82 102.934C2001.29 100.534 1974.22 99.334 1967.02 101.201Z" fill="white"/>
<path d="M2085.29 102C2078.22 104.267 2073.55 108.4 2070.35 115.334C2068.22 120 2067.82 124.4 2067.82 151.2C2067.82 186.4 2068.62 189.867 2078.75 196.8C2083.95 200.534 2085.15 200.667 2100.89 201.2C2119.42 201.734 2125.42 200.534 2131.95 195.067C2140.22 188 2141.15 184 2141.15 152C2141.15 135.067 2140.49 121.2 2139.69 118C2137.55 110.267 2129.69 103.334 2121.15 101.467C2111.95 99.467 2092.49 99.7336 2085.29 102Z" fill="white"/>
<path d="M1841.29 192.267C1809.95 256.8 1811.55 338.267 1845.55 398.934C1853.69 413.6 1866.09 429.2 1880.35 443.334C1926.09 488.134 1982.62 508.667 2053.69 506.267C2118.49 504.134 2169.02 483.2 2210.49 441.2C2239.02 412.4 2257.15 377.867 2265.42 336.934C2268.09 324 2268.49 317.867 2268.49 292C2268.49 258.4 2267.15 249.2 2259.02 222.667C2254.75 209.067 2242.35 180.8 2239.82 179.334C2239.02 178.8 2206.22 197.467 2143.02 234.134L2137.42 237.334L2141.29 247.2C2147.29 262.534 2149.55 278.934 2148.75 298.667C2147.82 318.934 2145.42 328.8 2137.55 345.334C2132.49 356 2129.69 359.6 2119.95 369.334C2106.89 382.4 2093.42 390 2075.15 394.934C2060.62 398.8 2029.02 399.067 2015.15 395.467C1978.09 385.867 1949.69 356 1941.95 318.4C1939.29 305.467 1939.15 278.267 1941.69 264.8C1942.75 259.334 1945.15 251.067 1947.02 246.4C1949.69 239.867 1950.09 237.734 1948.75 236.534C1947.02 234.8 1849.69 178.667 1848.62 178.667C1848.22 178.667 1844.89 184.8 1841.29 192.267Z" fill="white"/>
</svg>
