<svg width="824" height="519" viewBox="0 0 824 519" fill="none" xmlns="http://www.w3.org/2000/svg">
<path d="M373.409 142.187L373.42 142.167L373.431 142.148C382.487 126.624 390.569 111.266 396.379 99.1619C399.286 93.1063 401.609 87.8954 403.199 83.9018C403.995 81.9021 404.592 80.2445 404.985 78.9592C405.182 78.3167 405.318 77.7973 405.403 77.3943C405.446 77.1943 405.472 77.0379 405.487 76.9207C405.502 76.8055 405.503 76.7524 405.504 76.749V76.7488C405.504 71.2103 401.892 64.6561 394.016 57.7258C386.226 50.8707 374.695 44.0434 359.95 37.9517C353.199 35.2491 346.929 31.5294 342.296 27.7543C339.981 25.8681 337.998 23.9062 336.566 21.9816C335.196 20.1391 334.045 17.9519 334.045 15.6842C334.045 11.9761 335.191 8.715 337.845 6.46382C340.415 4.28381 343.921 3.46342 347.799 3.50851C355.493 3.59799 366.235 7.11143 379.313 13.6506L379.327 13.6574L379.34 13.6644C404.773 26.7067 421.149 39.4276 428.504 54.7434C435.96 70.2699 433.81 87.6869 424.243 109.137C413.774 133.343 399.077 159.956 385.683 180.538C378.987 190.827 372.571 199.679 367.129 205.993C364.415 209.142 361.878 211.737 359.616 213.571C358.484 214.489 357.358 215.268 356.258 215.83C355.186 216.378 353.944 216.819 352.636 216.819C350.735 216.819 348.881 216.674 347.254 216.18C345.576 215.67 343.974 214.735 342.899 213.072C341.85 211.448 341.561 209.525 341.682 207.539C341.803 205.561 342.342 203.28 343.215 200.683C346.658 190.438 356.263 172.597 373.409 142.187Z" fill="white" stroke="white" stroke-width="6"/>
<path d="M569.335 321.444L569.364 321.347L569.4 321.252C569.925 319.852 570.96 318.797 572.038 318.003C573.138 317.194 574.5 316.497 576.029 315.88C579.088 314.645 583.229 313.566 588.304 312.617C598.481 310.714 612.922 309.244 631.157 308.267C676.22 305.654 688.602 302.35 698.045 292.918C702.531 288.27 710.855 276.673 720.887 261.524C730.867 246.453 742.375 228.117 753.159 210.239C763.945 192.357 773.985 174.967 781.036 161.784C784.567 155.182 787.319 149.691 789.039 145.741C789.675 144.28 790.146 143.084 790.462 142.152C790.093 142.109 789.681 142.065 789.224 142.02C786.844 141.787 783.443 141.554 779.109 141.326C770.451 140.872 758.201 140.446 743.23 140.081C713.296 139.351 672.557 138.864 628.076 138.864C558.602 138.864 518.221 138.54 495.21 137.153C483.763 136.463 476.332 135.498 471.708 134.071C469.395 133.358 467.474 132.439 466.108 131.123C464.616 129.684 463.97 127.946 463.97 126.12C463.97 124.263 464.648 122.514 466.183 121.082C467.582 119.778 469.55 118.868 471.929 118.159C476.695 116.739 484.38 115.775 496.273 115.085C520.172 113.699 562.174 113.375 634.573 113.375C721.802 113.375 767.91 113.69 792.153 117.388C804.204 119.227 811.659 121.994 815.935 126.688C820.31 131.492 820.767 137.677 820.767 144.309C820.767 145.872 820.289 147.79 819.625 149.798C818.934 151.883 817.939 154.357 816.698 157.14C814.214 162.711 810.665 169.695 806.375 177.593C797.789 193.398 786.143 213.024 773.861 232.627C761.577 252.231 748.634 271.85 737.448 287.641C731.857 295.534 726.688 302.494 722.249 308.026C717.857 313.501 714.041 317.755 711.171 320.087L711.143 320.11L711.114 320.132C703.594 325.943 696.641 329.402 684.925 331.355C673.433 333.271 657.267 333.751 631.325 333.751C608.29 333.751 592.819 333.268 583.323 331.935C578.647 331.279 575.004 330.369 572.606 328.946C571.363 328.208 570.225 327.199 569.575 325.793C568.897 324.327 568.925 322.812 569.335 321.444ZM790.919 140.417C790.922 140.346 790.914 140.363 790.917 140.443C790.918 140.432 790.918 140.423 790.919 140.417ZM792.536 142.488C792.535 142.487 792.519 142.481 792.482 142.471C792.517 142.484 792.536 142.489 792.536 142.488Z" fill="white" stroke="white" stroke-width="6"/>
<path d="M293.09 243.331L293.1 243.33L293.11 243.328C312.127 240.705 355.792 238.104 390.258 237.454L390.27 237.454L390.283 237.454L452.647 236.804L454.813 236.782L455.516 238.831L463.307 261.555C463.308 261.556 463.308 261.558 463.309 261.559C465.849 268.863 468.623 274.154 471.528 277.568C474.396 280.937 477.199 282.278 479.963 282.278C482.098 282.278 484.591 282.898 487.14 283.815C489.739 284.75 492.617 286.076 495.589 287.667C501.532 290.848 508.03 295.181 513.701 299.852L513.717 299.865L513.732 299.878C517.975 303.468 521.367 306.519 523.952 309.252C526.528 311.976 528.437 314.524 529.569 317.133C531.998 322.73 530.482 327.705 527.438 333.454L527.429 333.471L527.42 333.487C525.137 337.672 520.131 342.38 514.275 346.586C508.331 350.856 501.129 354.881 494.046 357.582C478.38 363.853 468.044 373.106 462.582 385.852L462.57 385.878L462.558 385.905C458.084 395.813 455.081 402.183 446.853 405.627C442.939 407.265 437.989 408.192 431.439 408.849C424.863 409.509 416.41 409.918 405.388 410.404L405.386 410.404C375.284 411.713 339.368 409.423 307.803 405.019C292.015 402.816 277.27 400.077 264.85 396.98C252.491 393.898 242.224 390.41 235.529 386.633L235.505 386.62L235.482 386.606C229.607 383.151 223.04 377.394 217.151 370.841C211.258 364.285 205.881 356.75 202.475 349.607C196.754 338.164 193.401 331.286 193.401 324.255C193.401 317.224 196.754 310.346 202.476 298.901C217.362 267.799 247.715 249.907 293.09 243.331ZM254.113 362.594L254.159 362.622L254.205 362.65C255.588 363.53 258.456 364.653 262.87 365.914C267.183 367.147 272.685 368.436 279.106 369.743C291.941 372.354 308.295 375.003 325.838 377.394C360.936 382.176 400.576 385.893 426.06 386.217C427.274 386.212 428.687 385.635 430.302 383.994C431.939 382.331 433.583 379.762 435.133 376.314C438.227 369.432 440.671 359.678 442.153 348.545C445.12 326.251 444.117 299.324 437.507 280.431C434.185 271.13 432.198 267.243 428.743 265.207C426.998 264.178 424.642 263.495 421.04 263.141C417.431 262.786 412.811 262.779 406.654 262.941C373.95 264.237 340.279 267.313 312.458 271.276C298.543 273.258 286.124 275.457 276.038 277.758C265.879 280.075 258.321 282.445 253.972 284.694L253.97 284.695C234.442 294.774 225.216 308.708 225.143 322.403C225.069 336.138 234.189 350.893 254.113 362.594ZM482.32 333.307C484.431 332.551 487.152 331.12 490.623 328.916C492.349 327.663 493.574 325.925 494.179 324.17C494.771 322.453 494.704 320.948 494.24 319.9C490.982 315.143 486.444 313.871 482.964 314.741C479.51 315.605 476.466 318.723 476.466 324.255C476.466 327.731 476.751 330.166 477.26 331.774C477.755 333.336 478.31 333.684 478.614 333.802C479.073 333.98 480.136 334.09 482.32 333.307Z" fill="white" stroke="white" stroke-width="6"/>
<path d="M90.9102 312.963C54.9272 313.935 31.6606 313.31 18.5776 310.459C15.2737 309.739 12.4863 308.85 10.2524 307.739C8.02633 306.632 6.17381 305.216 4.98968 303.348C2.44864 299.341 3.82864 294.884 6.39539 290.903C7.15911 289.511 8.47395 288.591 9.72421 287.954C11.0876 287.259 12.7859 286.696 14.7281 286.221C18.6225 285.269 23.9721 284.564 30.6907 284.072C44.1569 283.087 63.5987 282.928 88.9585 283.578C120.098 284.227 139.306 285.201 150.75 287.025C156.428 287.93 160.565 289.095 163.339 290.769C164.772 291.634 165.949 292.698 166.755 294.032C167.573 295.388 167.895 296.834 167.895 298.27C167.895 299.706 167.573 301.148 166.764 302.499C165.966 303.83 164.802 304.895 163.385 305.762C160.641 307.441 156.563 308.608 151.004 309.514C139.8 311.34 121.075 312.314 90.9102 312.963Z" fill="white" stroke="white" stroke-width="6"/>
<path d="M97.4653 364.93C76.6937 365.903 61.6869 364.979 52.8583 361.745C48.4325 360.124 44.917 357.687 43.4719 353.978C42.0073 350.218 43.0529 346.161 45.3702 342.233C46.0365 341.079 47.0542 340.232 48.0935 339.599C49.1572 338.951 50.4207 338.42 51.8023 337.975C54.5631 337.085 58.1379 336.427 62.3354 335.97C70.7503 335.053 82.1231 334.896 95.5157 335.549C112.353 336.197 123.561 337.173 130.592 339.059C134.114 340.004 136.948 341.265 138.918 343.125C141.028 345.115 141.91 347.563 141.91 350.24C141.91 352.824 140.981 355.166 138.947 357.082C137.038 358.881 134.303 360.167 130.897 361.159C124.094 363.14 113.368 364.28 97.4653 364.93Z" fill="white" stroke="white" stroke-width="6"/>
<path d="M220.466 439.748L220.512 439.583L220.575 439.423C222.098 435.617 224.897 432.106 228.29 429.538C231.68 426.972 235.873 425.195 240.251 425.195C244.125 425.195 247.493 426.118 250.094 427.959C252.729 429.824 254.386 432.502 254.973 435.593C256.069 441.373 253.413 448.11 247.781 454.113C249.828 454.789 253.624 455.446 259.835 455.982C273.814 457.187 298.37 457.676 337.695 457.676C365.02 457.676 391.06 458.326 410.856 459.385C420.749 459.915 429.12 460.548 435.327 461.258C438.425 461.612 441.035 461.992 443.046 462.398C444.051 462.601 444.954 462.819 445.718 463.061C446.383 463.271 447.162 463.564 447.82 464.008C455.217 468.587 456.833 478.526 455.31 487.411C453.748 496.521 448.696 506.156 440.647 511.279L440.613 511.3L440.579 511.32C435.568 514.327 430.991 516.084 426.108 514.53C421.559 513.083 417.484 508.939 412.657 502.827C409.963 499.5 407.797 497.239 404.954 495.539C402.105 493.834 398.345 492.56 392.307 491.658C380.081 489.832 359.58 489.661 320.804 489.661C282.029 489.661 261.528 489.832 249.302 491.658C243.263 492.56 239.504 493.834 236.655 495.539C233.812 497.239 231.646 499.5 228.952 502.826C224.125 508.939 220.05 513.083 215.5 514.53C210.618 516.084 206.04 514.327 201.029 511.32L201.022 511.316L201.016 511.312C191.157 505.327 185.919 496.29 186.012 486.794C186.105 477.324 191.49 468.024 201.578 461.414L201.589 461.407L201.6 461.4C205.878 458.651 210.212 454.788 213.703 450.755C217.245 446.661 219.666 442.682 220.466 439.748ZM246.691 455.266C246.693 455.266 246.705 455.25 246.722 455.219C246.698 455.251 246.689 455.267 246.691 455.266ZM246.468 453.538C246.45 453.521 246.44 453.514 246.439 453.514C246.438 453.514 246.446 453.522 246.468 453.538Z" fill="white" stroke="white" stroke-width="6"/>
</svg>
