<svg width="4960" height="1024" viewBox="0 0 4960 1024" fill="none" xmlns="http://www.w3.org/2000/svg">
<g clip-path="url(#clip0_1524_13)">
<path d="M1328.58 857.248C1383.55 932.928 1414.3 957.504 1461.7 960.544H1469.28V997.888H1172.29V960.544L1178.34 962.08C1214.11 963.616 1246.4 949.28 1246.4 929.856C1246.4 918.592 1243.39 914.016 1214.14 875.136L1096.16 715.552L986.752 857.248C954.496 899.2 946.912 910.464 946.912 921.696C946.912 944.192 979.168 962.112 1019.01 962.112L1028.1 960.576V997.92H783.04V960.576H793.12C849.088 955.488 893.44 924.768 952.448 846.016L1076 685.888L944.416 505.344C869.28 404.096 850.112 387.712 801.216 384.64H790.624V347.296H1070.94V384.64H1063.39C1026.59 384.64 1010.43 392.832 1010.43 413.792C1010.43 427.104 1011.94 428.64 1038.66 462.368L1142.02 602.528L1239.33 480.288C1264.03 446.528 1271.58 435.264 1271.58 425.568C1271.58 401.024 1242.34 385.152 1197.98 385.152H1191.94V347.808H1427.9V385.152H1423.36C1378.98 386.688 1343.71 409.184 1280.19 481.824L1161.7 628.608L1328.58 857.248ZM1823.2 322.24C2003.71 322.24 2139.33 472.096 2139.84 673.12C2139.84 874.656 2005.22 1022.98 1823.71 1022.98C1751.1 1022.98 1667.39 992.32 1615.49 945.76C1545.89 882.88 1506.08 783.136 1506.08 667.008C1506.08 472.128 1644.74 322.272 1823.23 322.272L1823.2 322.24ZM1821.66 988.192C1957.79 988.192 2018.3 891.52 2017.79 678.752C2017.79 461.376 1955.78 359.584 1822.66 359.584C1690.05 359.584 1626.5 461.344 1626.5 674.144C1626.5 891.52 1685.98 988.192 1821.63 988.192H1821.66ZM2469.57 968.768C2504.83 968.768 2533.09 947.776 2560.8 904.32L2583.01 918.656C2553.76 983.104 2494.78 1023.52 2428.22 1023.52C2373.25 1023.52 2321.86 991.296 2298.14 942.72C2278.98 905.376 2275.97 875.2 2275.97 752.448V385.184H2190.24V347.84C2274.43 346.304 2344 260.896 2357.12 144.768H2380.83V347.84H2560.8V385.184H2381.31V776.992C2381.31 862.4 2384.32 893.088 2395.94 917.12C2409.06 949.344 2438.78 968.768 2469.54 968.768H2469.57ZM2907.23 775.392C2904.19 949.312 2908.74 959.04 2995.46 961.088H3010.08V998.432H2689.92V961.088H2713.6C2757.95 962.624 2778.66 954.432 2791.78 930.4C2799.33 917.6 2800.83 907.872 2800.83 877.184C2802.34 868.992 2802.34 853.152 2802.34 825.536V578.496C2802.34 412.256 2795.3 399.488 2709.57 401.024H2690.4V364.192C2756.96 357.536 2862.82 335.04 2891.07 322.24H2907.23V775.392ZM3420.48 981.536C3513.79 981.536 3578.3 931.392 3603.52 840.384H3635.78C3602.02 959.552 3516.26 1024 3389.22 1024C3215.26 1024 3088.19 880.8 3088.19 680.8C3088.19 477.76 3225.86 322.752 3402.82 322.752C3512.22 322.752 3609.54 382.592 3609.54 448.576C3609.54 480.8 3590.37 503.296 3563.65 503.296C3526.85 503.296 3511.71 486.944 3501.63 432.192C3493.06 377.472 3467.87 359.584 3404.29 359.584C3274.21 359.584 3209.15 456.256 3209.15 651.136C3209.15 751.392 3231.36 846.528 3265.12 902.784C3297.89 952.384 3355.36 981.536 3420.42 981.536H3420.48ZM4037.63 981.536C4130.4 981.536 4195.42 931.392 4220.64 840.384H4252.93C4219.17 959.552 4133.44 1024 4006.37 1024C3832.42 1024 3705.38 880.8 3705.38 680.8C3705.38 477.76 3843.01 322.752 4020 322.752C4129.41 322.752 4226.72 382.592 4226.72 448.576C4226.72 480.8 4207.55 503.296 4180.83 503.296C4144.06 503.296 4128.93 486.944 4118.85 432.192C4110.27 377.472 4085.09 359.584 4021.54 359.584C3891.46 359.584 3826.4 456.256 3826.4 651.136C3826.4 751.392 3848.58 846.528 3882.37 902.784C3915.14 952.384 3972.61 981.536 4037.66 981.536H4037.63ZM4939.14 878.208V877.728H4964.83C4961.82 961.632 4915.9 1013.28 4842.3 1013.28C4777.76 1013.28 4740.45 977.472 4727.33 900.224C4625.47 979.52 4553.41 1013.28 4488.35 1013.28C4402.62 1013.28 4340.61 955.488 4340.61 874.656C4340.61 777.472 4420.26 700.224 4615.39 613.28L4727.33 563.136V530.944C4727.33 464.96 4725.82 447.04 4715.74 424.544C4695.07 379.52 4650.69 355.488 4591.71 355.488C4544.32 355.488 4502.98 368.288 4486.85 390.784C4475.23 405.12 4473.73 410.208 4467.68 443.968C4461.63 491.008 4439.46 516.608 4408.67 516.608C4381.95 516.608 4364.32 497.696 4364.32 470.08C4364.32 441.44 4383.97 409.216 4416.26 380.064C4462.14 341.696 4525.66 322.272 4606.85 322.272C4707.2 322.272 4775.23 354.496 4812.06 417.408C4829.7 449.632 4832.74 470.624 4832.74 549.376V812.256C4832.74 903.808 4832.74 903.808 4838.78 921.728C4846.34 944.224 4860.99 955.488 4878.62 955.488C4909.89 955.488 4931.55 928.384 4939.14 878.208ZM4728.38 857.248V600.992L4648.7 636.256C4526.21 691.52 4462.66 760.544 4462.66 844.448C4462.66 910.432 4497.98 955.456 4548.38 955.456C4592.74 955.456 4657.31 920.128 4728.38 857.248ZM2802.34 153.984C2802.34 130.944 2820.99 112.032 2844.19 111.52C2867.39 111.52 2886.02 129.92 2886.02 153.472V153.984C2886.02 177.504 2867.39 196.448 2844.19 196.448C2820.99 196.448 2802.34 177.504 2802.34 153.984ZM131.584 462.912C108.896 462.912 90.24 443.968 89.76 420.448C89.76 396.896 108.416 377.984 131.584 377.984C154.784 378.496 173.44 396.896 173.44 420.448C173.44 444 154.784 462.912 131.584 462.912ZM2767.04 192.32H2756.45C2738.3 170.848 2728.22 143.744 2728.22 116.608C2728.22 52.16 2779.65 0 2843.2 0C2906.75 0 2958.14 52.192 2958.14 116.608C2958.14 143.712 2948.06 170.848 2929.92 192.32H2920.32C2926.4 177.472 2929.92 162.144 2929.92 146.304C2929.92 90.56 2891.58 45.536 2843.71 45.536C2796.32 45.536 2757.5 90.56 2757.5 146.304C2757.5 162.144 2760.54 178.016 2767.1 192.32H2767.04ZM4741.98 152.448C4705.18 184.16 4658.3 201.536 4609.89 202.56C4557.95 202.56 4508.03 182.112 4470.24 145.792L4500 114.08C4557.47 169.312 4654.27 171.872 4714.3 119.712L4742.02 152.448H4741.98ZM317.12 568.8H287.36C284.352 608.672 284.352 626.592 284.352 647.552C284.352 755.456 302.496 845.504 331.744 895.616C366.016 950.336 417.472 981.024 479.488 981.024C565.216 981.024 631.776 936 667.04 852.128H700.8C670.048 955.456 573.76 1022.94 458.784 1022.94C290.368 1022.94 163.328 875.136 163.328 678.208C163.328 639.36 168.864 603.04 177.44 568.768H168.352C168.352 568.768 64.992 570.816 18.624 481.824C18.624 481.824 5.02402 453.184 -0.0319824 431.68H26.688C34.272 452.672 44.864 468 55.936 481.312C107.36 538.592 187.04 531.936 187.04 531.936V532.48C230.4 405.632 330.24 322.272 452.736 322.272C581.312 322.272 681.664 414.336 697.792 542.72L698.784 551.424C699.296 557.568 700.8 562.688 700.8 568.832H317.12V568.8ZM321.152 428.64C305.024 454.208 297.952 478.784 290.4 536.544H573.76C576.768 522.208 576.768 514.048 576.768 502.784C576.768 415.84 524.832 356 448.192 356C396.256 356 350.88 383.616 321.12 428.64H321.152Z" fill="white"/>
</g>
<defs>
<clipPath id="clip0_1524_13">
<rect width="4960" height="1024" fill="white"/>
</clipPath>
</defs>
</svg>
