<svg width="534" height="154" viewBox="0 0 534 154" fill="none" xmlns="http://www.w3.org/2000/svg">
<g clip-path="url(#clip0_3635_2042)">
<path d="M5.86642 1.46668C4.26642 2.26668 2.26642 4.40001 1.46642 6.13334C-0.666915 10.8 -0.533581 141.2 1.46642 145.867C3.46642 150.267 9.33309 152.533 16.3998 151.6C27.1998 150.133 26.6664 154 26.6664 76C26.6664 -3.06666 27.3331 1.33334 15.1998 0.533342C11.5998 0.266675 7.33309 0.666675 5.86642 1.46668Z" fill="white"/>
<path d="M181.333 2.53368C165.6 7.33368 158.8 17.3337 157.733 37.467L156.933 50.667H152.4C149.866 50.667 146.666 51.2004 145.333 52.0004C141.866 53.867 140.8 59.6004 143.333 63.467C145.066 66.1337 146.533 66.667 152 66.667H158.666V106.4C158.666 152.267 158.266 150.667 170.4 150.667C181.466 150.667 181.333 151.334 181.333 105.734V66.667H187.066C191.066 66.667 193.6 65.867 195.066 64.267C200.4 58.4004 195.6 50.667 186.666 50.667H181.333V40.667C181.333 23.7337 185.733 18.667 200.266 18.667C209.6 18.667 212.266 17.3337 214 11.867C215.2 8.00035 211.6 3.20035 206.533 2.13368C200.933 1.06702 185.466 1.33368 181.333 2.53368Z" fill="white"/>
<path d="M224.8 4.26692C222.934 6.93359 222.667 16.0002 222.667 76.0002C222.667 151.867 222.4 149.734 231.067 151.334C235.6 152.267 242.667 150.267 244.267 147.6C244.8 146.667 245.334 114.4 245.334 75.8669C245.334 -4.26642 246.267 1.33359 233.6 1.33359C228.134 1.33359 226.4 1.86692 224.8 4.26692Z" fill="white"/>
<path d="M270.666 52.133C268.933 52.7997 266.933 54.133 266.4 55.0663C265.866 55.9997 265.333 71.5997 265.333 89.733C265.333 125.333 265.6 127.066 272.933 137.733C278.666 146 286.533 149.733 299.333 150.4C311.866 151.066 318.533 148.933 327.066 141.333L332 137.066V141.066C332 143.2 333.2 146.4 334.533 148.133C336.666 150.8 338.4 151.333 344 151.333C349.6 151.333 351.333 150.8 353.466 148.133C355.866 145.2 356 142.4 356 102.666C356 77.9997 355.466 58.6663 354.666 56.6663C353.066 52.533 347.466 50.2663 341.733 51.333C333.466 52.7997 333.333 53.4663 333.333 83.0663C333.333 97.8663 332.666 112.4 332 115.2C330.533 121.6 327.2 126.4 321.333 130.266C312.4 136.4 298 132.4 291.2 122C288.933 118.533 288.533 114.8 288 87.0663C287.2 52.7997 287.2 52.3997 278.533 51.333C276 50.933 272.533 51.333 270.666 52.133Z" fill="white"/>
<path d="M373.733 52.0002C368.533 54.1336 368 57.3336 368 88.4003C368 121.734 369.067 127.867 376.4 137.6C382.8 146.267 392.533 150.667 404.933 150.667C415.333 150.667 421.333 148.534 430.267 141.867C435.6 137.867 436 137.867 436 142.534C436 147.467 438.8 150.267 444.4 151.334C448.933 152.267 456 150.267 457.6 147.6C458.133 146.667 458.667 125.867 458.667 101.2C458.667 57.3336 458.667 56.4002 455.867 53.8669C452.133 50.5336 442.4 50.4002 439.067 53.7336C436.933 55.8669 436.533 59.7336 436 87.8669L435.333 119.6L431.467 124.534C424.267 134 411.733 135.734 401.2 128.8C392.267 122.8 391.333 119.2 390.933 85.7336C390.533 59.3336 390.133 56.0002 388 54.0002C385.067 51.3336 377.6 50.2669 373.733 52.0002Z" fill="white"/>
<path d="M48.7993 54.9332C46.9327 57.4665 46.666 64.2665 46.666 102.133C46.666 145.333 46.666 146.267 49.466 148.8C53.1993 152.133 62.9327 152.267 66.266 148.933C68.3994 146.8 68.7994 143.067 69.3327 115.467C69.9994 84.6665 69.9994 84.3999 73.5994 79.0665C81.1994 67.4665 97.1994 66.2665 107.466 76.5332C113.733 82.7999 114.666 88.2665 114.666 118.133C114.666 142.667 114.933 145.333 117.199 148.133C120.933 152.667 131.066 152.667 134.799 148.133C137.066 145.333 137.333 142.667 137.333 115.867C137.333 83.0665 136.266 75.9999 130.133 66.9332C123.466 57.3332 115.466 53.0665 102.799 52.2665C91.066 51.5999 84.1327 53.8665 74.5327 61.4665L69.3327 65.5999V60.9332C69.3327 54.1332 66.5327 51.9999 57.9993 51.9999C52.1327 51.9999 50.3993 52.5332 48.7993 54.9332Z" fill="white"/>
<path d="M513.733 54.8004C510.667 56.4004 505.333 60.0004 502 62.9337L496 68.267V63.7337C496 56.1337 492.933 53.3337 484.533 53.3337C479.067 53.3337 476.667 54.0004 474.667 56.0004C472.133 58.5337 472 60.4004 472 102.534V146.534L475.733 149.334C478.533 151.6 480.533 152.134 485.2 151.6C495.2 150.534 495.2 150.534 496 116.134C496.667 86.8004 496.8 85.6004 499.867 81.067C505.2 73.3337 511.333 70.0004 520.267 70.0004C529.2 70.0004 532.133 67.867 532.267 61.3337C532.4 58.267 531.467 56.1337 529.333 54.4004C525.467 51.3337 520.8 51.467 513.733 54.8004Z" fill="white"/>
</g>
<defs>
<clipPath id="clip0_3635_2042">
<rect width="533.333" height="153.333" fill="white"/>
</clipPath>
</defs>
</svg>
