<svg width="110" height="32" viewBox="0 0 110 32" fill="none" xmlns="http://www.w3.org/2000/svg">
<g clip-path="url(#clip0_2926_1786)">
<path d="M40.9013 17.9522L39.2839 19.6222V25.0496H35.2402V0H39.2839V14.7728L45.1715 8.99217H50.2504L43.8775 15.3509L50.6817 25.0496H45.7861L40.9013 17.9522Z" fill="white"/>
<path d="M61.0541 25.8196C55.1237 25.8196 51.4141 22.03 51.4141 17.0201C51.4141 12.0102 55.1019 8.22064 60.3856 8.22064C61.5388 8.20384 62.6833 8.41793 63.7509 8.85013C64.8185 9.28238 65.7876 9.92388 66.5998 10.7363C67.4121 11.5487 68.051 12.5154 68.4787 13.5785C68.9058 14.6416 69.1134 15.7794 69.0875 16.9237V17.9514H55.6843C56.0403 20.906 58.078 22.6081 61.119 22.6081C63.1722 22.6313 65.1549 21.8639 66.6507 20.4671L68.8503 22.9399C66.7234 24.8623 63.93 25.894 61.0541 25.8196ZM55.8462 15.2538H64.7744C64.2352 12.9736 62.6179 11.507 60.3425 11.507C58.0671 11.507 56.3959 12.9415 55.8462 15.2538Z" fill="white"/>
<path d="M80.5622 25.8196C74.6313 25.8196 70.9219 22.03 70.9219 17.0201C70.9219 12.0102 74.61 8.22064 79.8828 8.22064C81.036 8.20384 82.1805 8.41793 83.2481 8.85013C84.3157 9.28238 85.2848 9.92388 86.097 10.7363C86.9093 11.5487 87.5482 12.5154 87.9759 13.5785C88.403 14.6416 88.6101 15.7794 88.5847 16.9237V17.9514H75.1924C75.5479 20.906 77.5861 22.6081 80.6271 22.6081C82.6803 22.6313 84.663 21.8639 86.1588 20.4671L88.3584 22.9399C86.2309 24.8623 83.4381 25.894 80.5622 25.8196ZM75.3538 15.2538H84.2825C83.7433 12.9736 82.126 11.507 79.8506 11.507C77.5752 11.507 75.904 12.9415 75.3538 15.2538Z" fill="white"/>
<path d="M95.1199 22.6731V31.8901H91.0762V8.9922H94.8931V11.5293C95.6436 10.5335 96.6214 9.72902 97.7462 9.18181C98.8709 8.63466 100.111 8.36055 101.363 8.38203C105.989 8.38203 109.451 12.1716 109.451 16.9888C109.451 21.7097 105.989 25.6598 101.363 25.6598C100.162 25.6671 98.9752 25.4018 97.893 24.8842C96.8109 24.3666 95.8621 23.6103 95.1199 22.6731ZM100.166 22.1379C101.539 22.1379 102.856 21.5965 103.826 20.6329C104.797 19.6693 105.342 18.3623 105.342 16.9995C105.342 15.6367 104.797 14.3298 103.826 13.3661C102.856 12.4025 101.539 11.8612 100.166 11.8612C98.7936 11.8612 97.4768 12.4025 96.5062 13.3661C95.5357 14.3298 94.9902 15.6367 94.9902 16.9995C94.9902 18.3623 95.5357 19.6693 96.5062 20.6329C97.4768 21.5965 98.7936 22.1379 100.166 22.1379Z" fill="white"/>
<path d="M22.9195 10.5659L19.9757 7.71838L23.2484 4.38379L26.1922 7.22595C27.056 8.06031 27.7461 9.05542 28.2225 10.1544C28.699 11.2534 28.9527 12.4348 28.9692 13.6311C28.9857 14.8274 28.7647 16.0153 28.3188 17.1269C27.8729 18.2384 27.2108 19.2519 26.3704 20.1094C25.53 20.9669 24.5276 21.6518 23.4206 22.1247C22.3136 22.5977 21.1236 22.8495 19.9185 22.866C17.4847 22.8991 15.1374 21.9711 13.3929 20.286L10.4492 17.4385L13.7219 14.1039L16.6656 16.9461C17.3002 17.5622 18.1053 17.9766 18.9781 18.1368C19.8509 18.2969 20.752 18.1955 21.5665 17.8453C22.1077 17.6157 22.5972 17.2808 23.0061 16.8604C23.6266 16.2304 24.0442 15.4312 24.2055 14.5647C24.3668 13.6983 24.2645 12.8037 23.9119 11.9951C23.6805 11.4578 23.3429 10.9718 22.9195 10.5659Z" fill="white"/>
<path d="M15.5771 6.35324C13.8326 4.66822 11.4853 3.74019 9.05153 3.77332C6.61778 3.80644 4.29696 4.79801 2.59963 6.52987C0.902303 8.26176 -0.0325033 10.5921 0.000863513 13.0082C0.0342303 15.4243 1.03303 17.7283 2.77755 19.4133L5.72138 22.2555L8.99407 18.9209L6.05023 16.0573C5.41796 15.4455 4.98188 14.6618 4.79674 13.8047C4.61161 12.9477 4.68568 12.0554 5.00967 11.2401C5.22426 10.6951 5.54901 10.1996 5.96397 9.78419C6.3741 9.36395 6.86312 9.02753 7.40353 8.79397C7.94539 8.56262 8.52825 8.44071 9.11806 8.43535C9.70679 8.42716 10.2914 8.53454 10.8382 8.75131C11.385 8.96807 11.8833 9.29001 12.3044 9.69855L12.307 9.69593L15.248 12.5354L18.5207 9.20082L15.5771 6.35324Z" fill="white"/>
</g>
<defs>
<clipPath id="clip0_2926_1786">
<rect width="110" height="32" fill="white"/>
</clipPath>
</defs>
</svg>
