<svg width="3388" height="1009" viewBox="0 0 3388 1009" fill="none" xmlns="http://www.w3.org/2000/svg">
<path fill-rule="evenodd" clip-rule="evenodd" d="M504.497 0C225.873 0 0 225.87 0 504.5C0 783.127 225.873 1009 504.497 1009C783.127 1009 1009 783.127 1009 504.5C1009 225.87 783.127 0 504.497 0ZM185.7 505.782C183.655 505.11 181.314 501.815 181.314 501.815L156.489 468.423C156.489 468.423 155.506 467.073 155.769 466.437C156.129 465.599 156.773 465.701 157.671 465.546C194.591 459.158 231.78 452.038 269.638 439.344C305.794 427.212 344.871 413.089 382.567 386.545C424.054 357.313 444.509 333.596 464.363 306.367C494.678 264.806 512.871 224.53 522.882 195.947C523.613 193.85 524.107 193.391 524.932 193.472C525.478 193.525 526.196 193.567 526.298 194.825C526.495 197.119 524.317 287.474 523.531 296.311C522.84 303.944 521.634 314.344 516.508 325.792C497.439 368.412 464.072 405.301 419.886 438.156C344.227 494.418 264.632 505.372 191.233 506.389C189.165 506.429 187.77 506.455 185.7 505.782ZM350.507 717.401C348.221 718.551 346.676 719.337 343.999 719.687C341.345 720.039 336.975 717.616 336.975 717.616L291.313 693.647C291.313 693.647 289.5 692.675 289.445 691.829C289.392 690.699 290.175 690.462 291.09 689.806C328.895 662.846 366.604 634.928 402.068 600.418C435.943 567.465 471.997 530.702 499.841 480.823C530.487 425.898 540.59 388.418 548.147 347.346C559.679 284.66 558.379 229.917 554.211 192.613C553.901 189.883 554.206 189.1 555.173 188.748C555.809 188.516 556.634 188.178 557.417 189.52C558.867 191.985 604.96 294.056 608.82 304.351C612.152 313.24 616.396 325.509 616.816 341.053C618.393 398.887 600.943 458 569.233 518.421C514.944 621.882 431.939 676.854 350.507 717.401ZM661.779 839.802C660.043 842.227 658.879 843.89 656.293 845.716C653.734 847.519 647.901 847.382 647.901 847.382H587.545C587.545 847.382 585.122 847.353 584.62 846.502C583.945 845.364 584.626 844.702 585.217 843.522C609.724 795.014 633.622 745.576 651.603 690.544C668.785 637.961 686.148 580.274 687.874 513.431C689.774 439.872 679.857 395.531 665.348 348.86C643.221 277.647 612.094 221.619 587.49 185.229C585.682 182.565 585.579 181.59 586.381 180.702C587.597 179.365 589.426 179.493 589.426 179.493H649.309C649.309 179.493 655.063 179.493 657.213 180.702C659.378 181.921 661.004 183.729 661.95 185.053C726.634 276.31 780.239 379.04 780.239 514.666C780.239 651.398 724.13 753.493 661.779 839.802Z" fill="white"/>
<path fill-rule="evenodd" clip-rule="evenodd" d="M1675.87 526.926C1675.87 546.813 1673.39 565.456 1668.42 581.614C1663.46 598.393 1656.02 612.686 1646.1 624.494C1636.17 636.301 1624.39 645.623 1610.13 652.459C1595.86 659.295 1579.11 662.402 1561.13 662.402C1548.72 662.402 1537.56 661.159 1527.02 658.052C1516.47 654.945 1508.41 651.838 1501.59 648.109V749.405H1441.43V404.501C1453.83 401.393 1468.72 398.286 1486.7 395.179C1504.69 392.072 1523.3 390.829 1543.76 390.829C1564.23 390.829 1582.84 393.936 1598.96 400.151C1615.09 406.365 1629.35 415.687 1640.52 427.494C1651.68 439.302 1660.98 453.595 1667.18 470.374C1672.77 487.154 1675.87 505.797 1675.87 526.926ZM1613.85 528.169C1613.85 553.027 1608.88 573.535 1598.96 588.45C1589.04 603.365 1572.91 610.822 1551.21 610.822C1541.28 610.822 1531.98 608.958 1523.3 605.85C1514.61 602.743 1507.79 599.636 1502.21 595.907V446.759C1507.79 445.516 1513.99 444.273 1520.2 443.652C1525.78 443.031 1531.98 443.031 1537.56 443.031C1564.23 443.031 1583.46 450.488 1595.86 465.403C1607.64 480.318 1613.85 501.447 1613.85 528.169ZM1828.44 662.402C1810.45 661.781 1795.57 659.916 1783.78 656.188C1772 652.459 1762.7 647.487 1755.87 640.652C1749.05 633.816 1744.09 625.115 1740.99 615.172C1737.89 605.229 1736.65 593.421 1736.65 580.371V280.211L1796.81 270.268V569.185C1796.81 576.642 1797.43 582.857 1798.67 587.828C1799.91 592.8 1801.77 597.15 1804.87 600.257C1807.97 603.986 1811.69 606.472 1817.27 608.336C1822.24 610.201 1829.06 611.443 1837.12 612.686L1828.44 662.402ZM1972.33 389.586C1992.17 389.586 2008.92 392.072 2022.56 397.043C2036.21 402.015 2046.75 408.851 2055.43 418.173C2063.5 426.873 2069.08 438.059 2072.8 451.109C2076.52 464.16 2077.76 477.832 2077.76 493.368V651.216C2068.46 653.081 2054.19 655.566 2035.59 658.674C2016.98 661.781 1995.89 663.024 1972.33 663.024C1956.82 663.024 1942.56 661.781 1929.53 658.674C1916.51 655.566 1905.34 650.595 1896.66 644.38C1887.36 637.544 1880.54 628.844 1874.95 618.279C1869.99 607.715 1867.51 594.664 1867.51 579.128C1867.51 564.213 1870.61 551.784 1876.19 541.22C1881.78 530.655 1889.84 522.576 1899.76 515.74C1909.69 509.526 1921.47 504.554 1934.49 502.068C1947.52 498.961 1961.16 497.718 1975.43 497.718C1982.25 497.718 1989.07 498.34 1996.52 498.961C2003.96 499.582 2011.4 501.447 2020.08 503.311V493.368C2020.08 486.532 2019.46 479.696 2017.6 473.482C2015.74 467.267 2013.26 461.674 2008.92 456.702C2004.58 451.731 1999 448.002 1992.79 445.516C1985.97 443.031 1977.29 441.788 1967.37 441.788C1953.72 441.788 1940.7 443.031 1928.91 444.895C1917.13 446.759 1907.83 449.245 1900.38 451.731L1892.94 402.636C1900.38 400.151 1911.55 397.043 1926.43 394.558C1940.08 390.829 1955.58 389.586 1972.33 389.586ZM1977.29 614.551C1995.89 614.551 2010.16 613.308 2019.46 611.443V544.948C2016.36 543.705 2011.4 543.084 2005.2 541.841C1999 540.598 1992.17 540.598 1984.11 540.598C1977.29 540.598 1970.47 541.22 1963.64 541.841C1956.82 543.084 1950.62 544.948 1945.04 547.434C1939.46 549.92 1935.11 553.649 1932.01 558.62C1928.91 563.592 1927.05 569.806 1927.05 576.642C1927.05 590.936 1931.39 600.879 1940.7 606.472C1950 612.065 1962.4 614.551 1977.29 614.551ZM2148.47 327.441L2208.63 317.498V396.422H2301.04V446.759H2209.25V553.027C2209.25 574.156 2212.35 589.071 2219.17 597.772C2225.99 606.472 2237.16 611.443 2253.28 611.443C2264.44 611.443 2273.75 610.201 2282.43 607.715C2291.11 605.229 2297.32 603.365 2302.28 601.5L2312.2 649.352C2305.38 652.459 2296.08 655.566 2284.91 658.674C2273.75 661.781 2260.1 663.645 2245.22 663.645C2226.61 663.645 2211.11 661.159 2198.7 656.188C2186.3 651.216 2176.38 643.759 2168.93 634.437C2161.49 625.115 2156.53 613.308 2153.43 600.257C2150.33 586.585 2149.09 571.671 2149.09 554.27V327.441H2148.47ZM2446.17 389.586C2466.01 389.586 2482.76 392.072 2496.4 397.043C2510.05 402.015 2520.59 408.851 2529.27 418.173C2537.34 426.873 2542.92 438.059 2546.64 451.109C2550.36 464.16 2551.6 477.832 2551.6 493.368V651.216C2542.3 653.081 2528.03 655.566 2509.43 658.674C2490.82 661.781 2469.73 663.024 2446.17 663.024C2430.66 663.024 2416.4 661.781 2403.37 658.674C2390.35 655.566 2379.18 650.595 2370.5 644.38C2361.2 637.544 2354.38 628.844 2348.79 618.279C2343.83 607.715 2341.35 594.664 2341.35 579.128C2341.35 564.213 2344.45 551.784 2350.03 541.22C2355.62 530.655 2363.68 522.576 2373.6 515.74C2383.52 509.526 2395.31 504.554 2408.33 502.068C2421.36 498.961 2435 497.718 2449.27 497.718C2456.09 497.718 2462.91 498.34 2470.35 498.961C2477.8 499.582 2485.24 501.447 2493.92 503.311V493.368C2493.92 486.532 2493.3 479.696 2491.44 473.482C2489.58 467.267 2487.1 461.674 2482.76 456.702C2478.42 451.731 2472.83 448.002 2466.01 445.516C2459.19 443.031 2450.51 441.788 2440.58 441.788C2426.94 441.788 2413.92 443.031 2402.13 444.895C2390.35 446.759 2381.04 449.245 2373.6 451.731L2366.16 402.636C2373.6 400.151 2384.77 397.043 2399.65 394.558C2413.91 390.829 2430.04 389.586 2446.17 389.586ZM2451.13 614.551C2469.73 614.551 2484 613.308 2493.3 611.443V544.948C2490.2 543.705 2485.24 543.084 2479.04 541.841C2472.83 540.598 2466.01 540.598 2457.95 540.598C2451.13 540.598 2444.31 541.22 2438.1 541.841C2431.28 543.084 2425.08 544.948 2419.5 547.434C2413.91 549.92 2409.57 553.649 2406.47 558.62C2403.37 563.592 2401.51 569.806 2401.51 576.642C2401.51 590.936 2405.85 600.879 2415.16 606.472C2423.84 612.065 2436.24 614.551 2451.13 614.551ZM2625.41 404.501C2637.19 401.393 2652.08 398.286 2670.68 395.179C2689.29 392.072 2709.75 390.829 2732.7 390.829C2753.79 390.829 2771.78 393.936 2786.04 399.529C2800.3 405.122 2811.47 413.201 2820.15 423.766C2828.83 434.33 2834.42 446.759 2838.14 461.674C2841.86 476.589 2843.1 492.747 2843.1 510.147V656.809H2782.94V520.09C2782.94 506.418 2782.32 493.989 2780.46 484.668C2778.6 474.725 2775.5 466.646 2771.78 460.431C2768.05 454.217 2761.85 449.867 2755.03 446.759C2747.59 443.652 2738.9 442.409 2728.98 442.409C2721.54 442.409 2713.48 443.031 2704.79 443.652C2696.73 444.895 2690.53 445.516 2686.19 446.138V656.809H2626.03V404.501H2625.41ZM3130.26 649.352C3118.47 652.459 3103.59 655.566 3084.98 658.674C3066.37 661.781 3045.91 663.645 3023.58 663.645C3002.49 663.645 2985.13 660.538 2970.86 654.945C2956.6 649.352 2945.43 640.652 2936.75 630.087C2928.07 619.522 2922.49 606.472 2918.76 592.179C2915.04 577.264 2913.18 561.106 2913.18 543.705V396.422H2973.34V533.141C2973.34 561.106 2977.68 580.992 2985.75 592.8C2993.81 604.607 3008.07 610.822 3028.54 610.822C3035.98 610.822 3043.43 610.201 3051.49 609.579C3059.55 608.958 3065.75 608.336 3069.47 607.093V395.8H3129.64V649.352H3130.26ZM3272.28 613.929C3288.41 613.929 3299.57 612.065 3307.01 608.336C3314.46 604.607 3318.18 597.772 3318.18 588.45C3318.18 579.749 3314.46 572.914 3306.39 566.699C3298.33 560.485 3285.93 554.892 3267.94 548.056C3256.78 544.327 3246.85 539.977 3237.55 535.627C3228.25 531.276 3220.81 525.683 3213.98 520.09C3207.16 514.497 3202.2 507.04 3198.48 498.34C3194.76 489.639 3192.9 479.696 3192.9 467.267C3192.9 443.031 3201.58 424.387 3219.57 410.715C3236.93 397.043 3261.12 390.207 3291.51 390.207C3307.01 390.207 3321.28 391.45 3335.54 394.558C3349.19 397.665 3359.73 400.151 3367.17 402.636L3356.01 451.731C3349.19 448.624 3341.13 446.138 3330.58 443.652C3320.04 441.166 3308.26 439.923 3294.61 439.923C3282.21 439.923 3272.28 441.788 3264.84 446.138C3257.4 450.488 3253.68 456.702 3253.68 465.403C3253.68 469.753 3254.3 473.482 3256.16 476.589C3257.4 479.696 3260.5 482.803 3263.6 485.911C3267.32 489.018 3272.28 491.504 3277.87 494.611C3284.07 497.718 3290.89 500.204 3299.57 503.311C3313.84 508.904 3326.24 513.876 3336.16 518.847C3346.09 523.819 3354.15 530.034 3360.97 536.248C3367.17 542.463 3372.14 549.92 3375.24 558.62C3378.34 566.699 3379.58 576.642 3379.58 588.45C3379.58 613.308 3370.28 632.573 3351.67 645.002C3333.06 658.052 3307.01 664.267 3272.9 664.267C3249.96 664.267 3231.35 662.402 3217.7 658.674C3204.06 654.945 3194.14 651.838 3188.55 649.352L3199.1 599.014C3207.78 602.743 3218.95 606.472 3231.35 609.579C3241.89 612.065 3256.16 613.929 3272.28 613.929Z" fill="white"/>
</svg>
