<svg width="210" height="35" viewBox="0 0 210 35" fill="none" xmlns="http://www.w3.org/2000/svg">
<path d="M0 13.4757V26.9513H3.64215H7.28429V30.9576V34.9639H11.9462C15.5155 34.9639 17.1181 34.5997 19.012 33.2885C23.1641 30.5206 24.0382 27.8254 24.0382 17.482C24.0382 7.13855 23.1641 4.44342 19.012 1.67546C16.8267 0.145798 15.6612 0.000114441 8.30409 0.000114441H0V13.4757ZM16.244 2.84092C21.1973 4.73479 22.727 10.4164 19.3762 14.3498C17.8465 16.098 16.9724 16.4622 12.6018 16.7536L7.64851 17.1178L7.42998 20.9055L7.21145 24.7661H4.66195H2.18529V13.9856C2.18529 8.01264 2.40382 2.91376 2.69519 2.69524C3.42362 1.96682 14.2044 2.11251 16.244 2.84092ZM20.8331 20.1043C20.3232 21.9253 16.244 24.9846 15.1513 24.3291C14.86 24.1105 14.5686 23.0179 14.5686 21.8525C14.5686 20.1043 15.0056 19.5215 17.0452 18.6474C18.3564 18.0647 19.7404 17.1906 20.1046 16.6807C20.9788 15.2968 21.4158 17.6277 20.8331 20.1043ZM12.3833 26.2229C12.3833 31.5403 12.1648 32.7786 11.2907 32.7786C10.4165 32.7786 10.198 31.5403 10.198 26.2229C10.198 20.9055 10.4165 19.6672 11.2907 19.6672C12.1648 19.6672 12.3833 20.9055 12.3833 26.2229ZM19.2305 29.9378C16.3897 32.9243 14.5686 32.7786 14.5686 29.5736C14.5686 27.3884 14.86 27.0242 16.681 26.5871C17.8465 26.3686 19.3034 25.5674 19.8133 24.9846C20.6145 23.9649 20.7602 24.0377 20.9788 25.7859C21.1973 27.2427 20.6145 28.481 19.2305 29.9378Z" fill="white"/>
<path d="M141.596 9.47246C137.954 10.9293 136.351 17.485 138.755 20.9085C141.596 24.9148 149.681 24.5506 151.867 20.3986C155.509 13.2602 149.099 6.41313 141.596 9.47246ZM148.734 12.896C150.337 14.3528 150.41 17.3393 148.88 19.5245C147.569 21.4913 143.854 21.7098 141.887 19.8887C140.285 18.4319 140.139 14.3528 141.742 12.8232C143.198 11.2935 147.059 11.3663 148.734 12.896Z" fill="white"/>
<path d="M199.217 9.38719C194.483 11.4267 193.244 17.9825 196.886 21.6245C198.562 23.2999 199.509 23.6641 202.568 23.6641C205.773 23.6641 206.502 23.3727 208.177 21.4788C209.998 19.2936 209.998 19.2936 208.468 19.0751C207.594 18.9294 206.356 19.3664 205.7 19.9492C204.316 21.406 201.038 21.4788 199.217 20.0948C198.27 19.4393 197.833 18.201 197.833 16.3799C197.833 14.5589 198.27 13.3206 199.217 12.665C201.038 11.2811 204.316 11.3539 205.7 12.8107C206.356 13.3935 207.594 13.8305 208.468 13.6848L209.998 13.4663L208.25 11.4267C206.356 9.24151 201.913 8.22173 199.217 9.38719Z" fill="white"/>
<path d="M42.9883 16.3916C42.9883 22.8016 43.0611 23.3115 44.4451 23.3115C45.5378 23.3115 45.902 22.8016 45.902 21.4905C45.902 19.8151 46.1934 19.6695 49.1071 19.6695C53.5505 19.6695 55.663 17.8484 55.5901 14.1335C55.4444 10.3458 53.9876 9.4717 47.9416 9.4717H42.9883V16.3916ZM52.385 12.9681C53.5505 15.1533 52.0208 16.7558 48.8157 16.7558C45.9748 16.7558 45.902 16.683 45.902 14.2064C45.902 11.7298 45.9748 11.6569 48.8157 11.6569C50.7825 11.6569 51.8751 12.0211 52.385 12.9681Z" fill="white"/>
<path d="M62.6602 16.3916V23.3115H68.1234C72.4939 23.3115 73.5866 23.093 73.5866 22.2189C73.5866 21.3448 72.6396 21.1263 69.5802 21.1263H65.5739V15.299C65.5739 9.98159 65.4282 9.4717 64.117 9.4717C62.733 9.4717 62.6602 9.98159 62.6602 16.3916Z" fill="white"/>
<path d="M81.4323 16.3916C79.0285 22.7288 78.9557 23.3115 80.194 23.3115C80.9224 23.3115 81.8694 22.656 82.3065 21.8547C82.962 20.6892 83.8362 20.3979 86.7499 20.3979C89.8093 20.3979 90.5377 20.6164 90.8291 21.8547C91.0476 22.8016 91.8489 23.3115 92.8687 23.3115C94.5441 23.3115 94.5441 23.3115 91.8489 16.3916C89.2265 9.4717 89.2265 9.4717 86.677 9.4717H84.1275L81.4323 16.3916ZM87.7697 13.8422C89.2994 16.8287 89.1537 17.4842 86.677 17.4842C85.5115 17.4842 84.4917 17.1929 84.4917 16.8287C84.4917 15.9546 86.0214 11.6569 86.3857 11.6569C86.5313 11.6569 87.1141 12.6039 87.7697 13.8422Z" fill="white"/>
<path d="M99.4584 11.4384C100.187 12.6039 101.571 14.6434 102.518 16.0274C103.392 17.4114 104.193 19.5966 104.193 20.9078C104.193 22.8016 104.485 23.3115 105.65 23.3115C106.816 23.3115 107.107 22.8016 107.107 20.9078C107.107 19.2324 108.054 17.12 110.021 14.2792C111.623 12.0211 112.934 9.98159 112.934 9.83591C112.934 9.61738 112.279 9.4717 111.477 9.4717C110.603 9.4717 109.292 10.6372 108.127 12.3853C107.034 13.9879 105.941 15.299 105.577 15.299C105.213 15.299 104.193 13.9879 103.319 12.3853C102.081 10.273 101.134 9.4717 99.8955 9.4717C98.2201 9.4717 98.2201 9.4717 99.4584 11.4384Z" fill="white"/>
<path d="M118.723 10.5643C118.723 11.2927 119.524 11.6569 121.272 11.6569H123.822V17.4842C123.822 22.8016 123.967 23.3115 125.279 23.3115C126.59 23.3115 126.735 22.8016 126.735 17.4842V11.6569H129.285C131.033 11.6569 131.834 11.2927 131.834 10.5643C131.834 9.69023 130.596 9.4717 125.279 9.4717C119.961 9.4717 118.723 9.69023 118.723 10.5643Z" fill="white"/>
<path d="M160.258 16.3916C160.258 22.8016 160.331 23.3115 161.715 23.3115C163.026 23.3115 163.172 22.8016 163.172 18.7225L163.244 14.2064L165.867 18.4312L168.489 22.7288L170.747 18.6497C171.986 16.3916 173.224 14.5706 173.515 14.5706C173.879 14.5706 174.098 16.5373 174.098 18.9411C174.098 22.8016 174.244 23.3115 175.555 23.3115C176.939 23.3115 177.012 22.8016 177.012 16.3916V9.4717H174.972C173.297 9.4717 172.641 10.1273 170.674 13.6236L168.416 17.7028L166.085 13.6236C164.264 10.3458 163.39 9.4717 162.006 9.4717C160.258 9.4717 160.258 9.54454 160.258 16.3916Z" fill="white"/>
<path d="M185.016 16.3916C185.016 22.8016 185.088 23.3115 186.472 23.3115C187.856 23.3115 187.929 22.8016 187.929 16.3916C187.929 9.98159 187.856 9.4717 186.472 9.4717C185.088 9.4717 185.016 9.98159 185.016 16.3916Z" fill="white"/>
</svg>
