<svg width="4234" height="615" viewBox="0 0 4234 615" fill="none" xmlns="http://www.w3.org/2000/svg">
<path d="M532.036 281.108C528.581 339.414 512.787 387.683 483.243 427.366C453.716 467.026 410.713 497.761 353.415 521.456L353.401 521.462L353.387 521.467C337.639 527.852 322.764 534.227 311.421 539.421C305.745 542.021 300.993 544.306 297.473 546.138C297.198 546.281 296.931 546.421 296.673 546.557C299.259 547.567 302.667 548.737 306.824 550.025C318.713 553.707 336.073 558.156 356.047 562.406L356.073 562.412L356.098 562.417C390.427 570.141 408.465 573.841 421.444 574.045C433.906 574.242 441.655 571.218 455.583 564.466L455.625 564.445L455.667 564.426C463.731 560.721 470.984 558.051 477.243 556.458C483.429 554.884 488.974 554.274 493.477 555.003C498.1 555.751 502.233 558.069 504.005 562.708C505.621 566.941 504.77 571.932 502.708 576.993C499.172 586.281 491.349 593.383 480.937 598.496C470.5 603.622 457.103 606.943 441.679 608.524C410.812 611.687 370.989 607.965 328.358 596.769L328.325 596.76L328.292 596.751C292.211 586.682 258.628 584.133 212.108 588.362L212.051 588.367L211.993 588.371C192.286 589.656 176.503 589.988 164.772 589.347C158.911 589.027 153.948 588.458 149.959 587.606C146.091 586.779 142.63 585.585 140.208 583.688C138.938 582.693 137.792 581.378 137.151 579.672C136.492 577.92 136.508 576.124 136.979 574.459C137.847 571.397 140.261 568.718 143.017 566.394C148.702 561.604 158.585 556.111 172.283 549.904L172.306 549.894L172.328 549.884C182.893 545.236 192.55 540.402 199.513 536.349C203.013 534.312 205.714 532.54 207.488 531.142C207.514 531.121 207.54 531.101 207.565 531.081C207.552 531.071 207.538 531.062 207.524 531.052C205.671 529.738 202.846 528.09 199.185 526.207C191.919 522.47 181.86 518.064 170.886 513.841C129.42 499.416 86.5716 466.434 56.7733 431.886C41.8484 414.581 30.0104 396.671 23.2603 380.239C16.5903 364.001 14.5141 348.251 20.7254 336.032C22.5492 332.282 26.7177 326.157 32.3169 318.591C38.0241 310.879 45.4581 301.353 54.0198 290.706C71.1476 269.407 92.8706 243.516 114.502 218.467C136.131 193.42 157.7 169.177 174.521 151.179C182.924 142.188 190.185 134.708 195.696 129.455C198.441 126.838 200.825 124.704 202.738 123.198C203.687 122.451 204.614 121.784 205.474 121.281C206.053 120.942 207.28 120.251 208.751 120.142C210.41 119.976 211.791 120.608 212.488 120.972C213.393 121.445 214.28 122.088 215.106 122.764C216.774 124.131 218.731 126.083 220.892 128.449C225.242 133.212 230.832 140.113 237.265 148.582C250.147 165.544 266.636 189.102 283.743 215.189C300.797 240.769 316.988 264.417 329.334 281.871C335.511 290.604 340.705 297.759 344.554 302.82C346.483 305.357 348.041 307.324 349.198 308.688C349.212 308.704 349.226 308.72 349.239 308.736C350.018 308.183 350.982 307.441 352.134 306.495C355.501 303.729 360.067 299.56 365.527 294.259C376.426 283.677 390.652 268.817 405.54 252.227L405.544 252.223C428.49 226.728 442.917 211.804 452.567 204.847C457.292 201.44 461.822 199.216 466.196 199.614C471.045 200.055 474.001 203.467 475.965 206.904L475.978 206.928L475.991 206.952C478.271 211.054 480.132 215.376 479.37 220.926C478.651 226.169 475.675 231.835 470.355 239.11C459.688 253.695 437.653 277.226 396.812 320.62C386.025 332.268 375.006 342.643 365.99 350.138C361.488 353.881 357.419 356.961 354.084 359.132C352.423 360.214 350.862 361.124 349.467 361.779C348.225 362.363 346.557 363.022 344.867 363.022C343.306 363.022 342 362.384 341.215 361.935C340.321 361.423 339.428 360.752 338.567 360.024C336.836 358.563 334.822 356.519 332.599 354.05C328.133 349.09 322.466 342.005 315.981 333.376C302.992 316.094 286.503 292.321 269.399 266.237L269.384 266.215L269.37 266.193C252.768 240.225 236.822 217.053 224.626 200.615C218.518 192.382 213.402 185.908 209.641 181.631C208.131 179.913 206.906 178.627 205.97 177.744C205.768 177.919 205.549 178.112 205.314 178.324C203.805 179.683 201.811 181.641 199.376 184.152C194.519 189.164 188.094 196.19 180.627 204.602C165.703 221.414 146.742 243.624 128.087 266.01C109.432 288.396 91.1102 310.926 77.4638 328.376C70.6355 337.108 65.008 344.529 61.1009 350.01C59.1413 352.759 57.6593 354.958 56.6837 356.56C56.3347 357.133 56.0751 357.589 55.8906 357.94C55.9038 357.976 55.9178 358.014 55.9328 358.054C56.1901 358.737 56.6061 359.677 57.1985 360.875C58.3779 363.259 60.1247 366.399 62.3323 370.078C66.7396 377.424 72.854 386.703 79.6124 395.996L79.6196 396.006L79.6267 396.016C152.598 497.505 274.711 525.008 379.337 465.588C454.794 421.985 494.02 355.166 494.02 268.891C494.02 245.125 492.743 228.438 489.331 213.444C485.927 198.486 480.347 184.991 471.471 167.662C398.571 26.0506 220.342 -3.16595 108.154 107.347L108.149 107.352L108.143 107.358C88.9812 126.103 71.5575 152.294 58.9287 179.551C46.2796 206.852 38.6452 234.78 38.6452 256.94C38.6452 262.155 38.43 266.568 37.8894 270.206C37.3559 273.796 36.4572 276.993 34.8472 279.523C33.1233 282.232 30.6832 284.01 27.608 284.73C24.7744 285.393 21.7203 285.083 18.6865 284.388C15.1499 283.675 11.8726 282.514 9.16494 280.329C6.36802 278.072 4.58073 275.052 3.477 271.351C1.39565 264.372 1.49349 253.928 2.33589 238.764L2.33707 238.743L2.33845 238.722C9.30819 131.563 97.9531 31.9025 209.763 4.16675L209.78 4.16266L374.841 21.4846M532.036 281.108L527.544 280.842L532.036 281.11C532.036 281.109 532.036 281.109 532.036 281.108ZM532.036 281.108C533.744 252.505 533.995 234.337 531.127 217.351C528.254 200.331 522.29 184.743 512.035 161.241L512.025 161.219L512.015 161.197C485.132 101.361 430.577 45.8691 374.841 21.4846M374.841 21.4846C374.846 21.4869 374.852 21.4893 374.857 21.4916L373.038 25.6038L374.84 21.4843C374.841 21.4844 374.841 21.4844 374.841 21.4846ZM209.311 529.435C209.307 529.435 209.282 529.468 209.245 529.531C209.296 529.465 209.314 529.434 209.311 529.435ZM209.321 532.538C209.364 532.604 209.393 532.638 209.397 532.638C209.401 532.639 209.38 532.606 209.321 532.538Z" fill="white" stroke="white" stroke-width="9"/>
<path d="M639.433 21.01L639.562 20.9241L639.697 20.8472C643.23 18.8285 647.202 17.5932 650.811 17.0954C654.236 16.623 658.1 16.7112 661.015 18.1685L661.377 18.3499L661.702 18.5934C662.464 19.1652 662.884 19.8365 663.075 20.1711C663.296 20.5602 663.448 20.9342 663.553 21.2222C663.762 21.7988 663.919 22.4288 664.044 23.0214C664.3 24.2298 664.53 25.808 664.746 27.6625C665.18 31.4005 665.6 36.6726 666.001 43.2602C666.806 56.457 667.555 75.1867 668.195 98.0402C669.477 143.76 670.331 206.117 670.331 274.014C670.331 389.6 670.12 451.664 668.189 484.484C667.236 500.697 665.843 510.482 663.499 516.076C662.275 518.998 660.529 521.43 657.84 522.744C655.214 524.028 652.544 523.811 650.514 523.432C648.198 523.021 645.766 522.193 643.556 520.295C641.386 518.431 639.796 515.85 638.55 512.575C636.126 506.2 634.558 495.927 633.386 479.416C631.027 446.168 630.173 385.381 628.894 274.065L628.893 274.056C628.04 182.291 628.252 121.166 629.643 82.3198C630.338 62.9169 631.331 48.9376 632.658 39.4308C633.319 34.6921 634.085 30.8977 635.001 28.0359C635.46 26.6026 635.994 25.2816 636.642 24.1474C637.274 23.0428 638.159 21.8599 639.433 21.01Z" fill="white" stroke="white" stroke-width="9"/>
<path d="M799.619 277.476L799.619 277.466L799.619 277.457C799.192 211.713 799.192 150.653 799.619 105.272C799.832 82.5859 800.153 63.7939 800.581 50.2862C800.795 43.538 801.037 38.0694 801.309 34.0786C801.445 32.0885 801.592 30.4146 801.753 29.1109C801.881 28.0821 802.073 26.716 802.489 25.6717C805.814 16.8963 814.861 12.0454 823.281 14.451L823.584 14.5376L823.872 14.6657C825.365 15.329 826.408 16.4475 827.13 17.4846C827.863 18.539 828.45 19.7759 828.942 21.0843C829.925 23.6963 830.753 27.1954 831.484 31.5582C832.955 40.3242 834.165 53.3867 835.181 71.6667C837.214 108.275 838.495 166.416 839.349 254.336L839.349 254.346L841.023 482.067H921.066C953.087 482.067 974.914 482.917 989.867 484.99C1004.65 487.041 1013.74 490.4 1019.15 496.344L1019.22 496.423L1019.29 496.505C1021.41 499.073 1023.22 501.628 1024.33 504.121C1025.45 506.618 1026.1 509.593 1025.03 512.591C1023.96 515.595 1021.54 517.58 1018.81 518.923C1016.09 520.263 1012.57 521.221 1008.37 521.946C991.715 524.813 959.166 524.779 903.889 523.503L903.882 523.503L903.875 523.503L806.561 520.942L802.226 520.828L802.18 516.492L799.619 277.476Z" fill="white" stroke="white" stroke-width="9"/>
<path d="M1072.78 277.483L1072.78 277.47L1072.78 277.456C1072.35 211.713 1072.35 150.653 1072.78 105.272C1072.99 82.5857 1073.31 63.7937 1073.74 50.286C1073.96 43.5378 1074.2 38.0692 1074.47 34.0784C1074.61 32.0883 1074.75 30.4144 1074.91 29.1107C1075.04 28.082 1075.23 26.7161 1075.65 25.6719C1078.93 17.0238 1088.1 11.7866 1096.84 15.4377C1098.4 16.0195 1099.49 17.115 1100.23 18.124C1101 19.1867 1101.59 20.4427 1102.07 21.7471C1103.04 24.3554 1103.82 27.8968 1104.5 32.347C1105.86 41.2997 1106.9 54.8427 1107.71 74.0762C1109.31 112.596 1109.95 174.574 1109.95 269.745C1109.95 376.402 1109.52 438.212 1107.7 473.355C1106.8 490.846 1105.53 502.105 1103.68 509.066C1102.75 512.524 1101.57 515.407 1099.84 517.481C1097.9 519.798 1095.41 520.943 1092.65 520.943C1089.89 520.943 1087.41 519.803 1085.47 517.523C1083.74 515.475 1082.53 512.632 1081.59 509.232C1079.69 502.393 1078.34 491.374 1077.27 474.364C1075.13 440.185 1074.06 380.295 1072.78 277.483Z" fill="white" stroke="white" stroke-width="9"/>
<path d="M1375.63 260.271C1378.33 263.14 1380.46 265.298 1381.98 266.716C1382.07 266.625 1382.17 266.53 1382.28 266.43C1383.97 264.801 1386.34 262.339 1389.34 259.091C1395.31 252.612 1403.6 243.214 1413.62 231.594C1433.65 208.365 1460.52 176.379 1489.53 141.389C1518.59 106.346 1546.18 74.6981 1567.16 52.0024C1577.64 40.6644 1586.53 31.5071 1593.15 25.2669C1596.44 22.1608 1599.27 19.6882 1601.5 18.02C1602.61 17.1976 1603.71 16.4619 1604.74 15.9501C1605.25 15.6948 1605.89 15.4246 1606.6 15.2589C1607.25 15.1053 1608.39 14.9395 1609.66 15.3626L1609.74 15.3889L1609.82 15.4182C1611.78 16.1528 1612.86 17.7639 1613.41 18.7683C1614.04 19.9116 1614.53 21.2773 1614.93 22.7173C1615.75 25.6225 1616.44 29.6206 1617.05 34.6418C1618.28 44.733 1619.24 59.6656 1619.99 79.8593C1621.49 120.285 1622.13 182.246 1622.13 269.745C1622.13 383.202 1621.92 445.046 1619.99 478.82C1619.03 495.596 1617.63 505.973 1615.4 512.387C1614.25 515.67 1612.77 518.28 1610.71 520.182C1608.58 522.146 1606.2 523.004 1603.95 523.427C1601.89 523.813 1599.3 524.007 1596.72 522.877C1594.07 521.712 1592.22 519.503 1590.88 516.744C1588.35 511.538 1586.78 502.572 1585.61 488.102C1583.25 458.769 1582.4 403.721 1581.54 302.227C1581.54 302.225 1581.54 302.223 1581.54 302.221L1579.13 95.857L1489.64 202.614C1489.63 202.619 1489.63 202.623 1489.63 202.627C1463.13 234.683 1437.67 263.777 1418.07 284.668C1408.27 295.104 1399.88 303.556 1393.52 309.319C1390.35 312.187 1387.58 314.485 1385.34 316.037C1384.22 316.805 1383.1 317.491 1382.02 317.961C1381.18 318.326 1379.36 319.027 1377.38 318.46C1376.2 318.123 1375.12 317.406 1374.4 316.892C1373.55 316.284 1372.59 315.504 1371.56 314.602C1369.49 312.792 1366.87 310.289 1363.81 307.212C1357.67 301.045 1349.53 292.37 1339.96 281.841C1320.82 260.771 1295.81 232.134 1269.33 200.953L1269.32 200.942L1269.31 200.931C1231.77 156.139 1207.94 126.525 1193.5 105.4C1179.12 84.371 1173.51 71.0199 1173.51 58.8986C1173.51 55.9663 1173.65 53.1164 1174.22 50.7936C1174.75 48.6301 1176.04 45.4481 1179.5 44.3228C1182.63 43.3012 1185.74 44.645 1188.06 46.0336C1190.62 47.5625 1193.6 49.9968 1197.09 53.2682C1211 66.3114 1236.2 95.8292 1281.34 149.914L1281.35 149.929L1281.36 149.943C1308.66 183.21 1334.02 213.265 1352.87 234.883C1362.3 245.698 1370.08 254.371 1375.63 260.271Z" fill="white" stroke="white" stroke-width="9"/>
<path d="M2473.19 426.366C2475.87 429.452 2478.17 432.078 2480.07 434.205C2480.2 432.351 2480.32 430.211 2480.43 427.796C2480.92 417.654 2481.32 402.933 2481.59 384.706C2482.12 348.266 2482.12 297.947 2481.27 242.499L2481.27 242.491L2481.27 242.483C2480.42 171.191 2480.63 119.882 2481.91 85.3013C2482.55 68.0224 2483.47 54.8229 2484.67 45.3561C2485.26 40.6284 2485.95 36.7303 2486.73 33.6745C2487.47 30.8087 2488.43 28.1297 2489.89 26.2733C2492.91 22.259 2496.77 19.3734 2500.71 17.879C2504.56 16.4195 2509.11 16.0952 2512.84 18.3344C2514.25 19.1823 2514.85 20.5259 2515.03 20.9154L2515.03 20.9171C2515.31 21.5394 2515.51 22.2122 2515.67 22.8275C2515.99 24.0809 2516.28 25.6964 2516.54 27.563C2517.06 31.3305 2517.55 36.626 2518.01 43.2191C2518.94 56.4319 2519.77 75.1741 2520.46 98.0295C2521.85 143.756 2522.71 206.119 2522.71 274.014C2522.71 380.244 2522.28 442.268 2520.46 477.41C2519.55 494.887 2518.29 506.119 2516.42 512.892C2515.51 516.217 2514.28 519.121 2512.35 521.087C2511.31 522.141 2510.04 522.953 2508.55 523.356C2507.07 523.754 2505.64 523.679 2504.39 523.39L2504.35 523.381L2504.31 523.371C2503.33 523.124 2502.51 522.619 2502.06 522.321C2501.51 521.959 2500.94 521.516 2500.36 521.041C2499.2 520.084 2497.8 518.786 2496.18 517.211C2492.95 514.048 2488.64 509.541 2483.43 503.872C2472.99 492.52 2458.74 476.338 2441.7 456.53C2407.63 416.904 2362.36 362.666 2314.11 303.315L2314.11 303.309L2314.1 303.303C2240.71 212.418 2196.88 157.042 2171.39 121.6C2158.66 103.889 2150.39 90.9991 2145.3 81.0495C2140.2 71.0925 2138.11 63.7427 2138.11 57.1919V57.1194L2138.11 57.0468L2138.12 56.8672C2138.33 50.4029 2138.49 45.3356 2138.82 41.7331C2138.99 39.9238 2139.22 38.2669 2139.58 36.893C2139.89 35.7404 2140.53 33.7602 2142.26 32.4646C2144.59 30.7185 2147.11 31.3214 2148.59 32.0765C2149.92 32.7557 2151.11 33.8469 2152.08 34.8497C2154.06 36.8842 2156.57 40.0687 2159.61 43.924L2159.8 44.16L2159.84 44.2077L2159.87 44.2565C2182.41 74.4521 2263 173.586 2338.58 265.283C2376.34 311.106 2412.83 355.028 2440.13 387.491C2453.78 403.724 2465.13 417.078 2473.19 426.366Z" fill="white" stroke="white" stroke-width="9"/>
<path d="M2767.28 20.3459L2767.47 20.0901L2767.7 19.8639C2769.1 18.465 2770.88 17.6957 2772.49 17.2606C2774.16 16.8123 2775.98 16.6252 2777.81 16.6252C2781.47 16.6252 2785.63 17.3704 2789.52 18.8267C2791.9 19.7012 2793.67 21.4578 2795 23.6187C2796.3 25.7401 2797.31 28.4634 2798.14 31.7378C2799.81 38.2868 2801.03 48.0529 2801.94 62.1292C2803.76 90.3626 2804.4 137.033 2804.4 212.551C2804.4 316.098 2802.72 375.348 2794.05 413.927C2789.68 433.369 2783.5 447.773 2774.76 460.047C2766.05 472.271 2754.97 482.141 2741.19 492.692C2723.51 506.387 2698.16 517.489 2675.23 523.465C2663.75 526.46 2652.67 528.221 2643.29 528.319C2634.21 528.414 2625.72 526.968 2620.36 522.495C2616.15 519.162 2612.79 515.521 2611.57 511.475C2610.92 509.314 2610.88 507.061 2611.63 504.861C2612.36 502.714 2613.73 500.92 2615.4 499.43C2618.64 496.536 2623.58 494.277 2629.67 492.38C2635.86 490.45 2643.73 488.755 2653.22 487.244L2653.27 487.236L2653.32 487.229C2662.1 486.032 2672.96 482.381 2683.63 477.464C2694.23 472.58 2704.34 466.589 2711.69 460.887C2723.81 450.463 2732.68 442.261 2739.39 432.731C2746.04 423.283 2750.72 412.316 2753.98 396.252C2760.59 363.733 2761.26 311.381 2761.26 210.844C2761.26 160.873 2761.9 114.734 2762.86 80.6456C2763.34 63.6069 2763.9 49.5475 2764.51 39.5144C2764.81 34.5064 2765.12 30.4468 2765.45 27.5017C2765.61 26.0382 2765.79 24.7727 2765.98 23.7724C2766.07 23.2766 2766.19 22.7664 2766.33 22.2932C2766.44 21.9523 2766.7 21.1201 2767.28 20.3459Z" fill="white" stroke="white" stroke-width="9"/>
<path d="M3395.7 56.5694L3395.69 56.5692L3395.67 56.5691C3363.71 56.1429 3342.51 55.2912 3329.27 53.4313C3322.71 52.5098 3317.64 51.2846 3314.1 49.4731C3310.37 47.5636 3307.58 44.5354 3307.58 40.1187C3307.58 36.1794 3308.31 32.0268 3309.67 28.326C3310.96 24.8049 3312.96 21.3152 3315.81 18.9135C3316.58 18.138 3317.45 17.6571 3318.09 17.3575C3318.93 16.9654 3319.86 16.658 3320.8 16.4057C3322.68 15.9 3325.06 15.4958 3327.78 15.1646C3333.24 14.4989 3340.61 14.0674 3349.31 13.8525C3366.74 13.4222 3389.9 13.8529 3414.72 15.1364C3465.2 17.276 3501.59 22.204 3530.31 32.4667C3559.21 42.7969 3580.12 58.4542 3599.77 81.5948L3599.78 81.607L3599.79 81.6192C3667.17 162.124 3645.62 287.653 3556.57 332.647C3549.72 336.236 3542.98 339.702 3537.25 342.656C3535.48 343.568 3533.8 344.432 3532.24 345.235C3529.1 346.858 3526.46 348.227 3524.52 349.261C3524.92 349.883 3525.38 350.593 3525.92 351.391C3528.54 355.275 3532.57 360.862 3537.74 367.782C3548.04 381.599 3562.73 400.546 3579.36 421.432C3608.69 457.568 3625.51 479.982 3632.4 494.208C3635.79 501.206 3637.39 507.42 3635.55 512.654C3633.62 518.152 3628.57 520.825 3623.35 522.426C3621.61 523.018 3619.99 522.613 3619.11 522.32C3618.05 521.969 3617 521.416 3616.02 520.819C3614.05 519.613 3611.72 517.809 3609.15 515.609C3603.98 511.178 3597.32 504.675 3589.74 496.813C3574.55 481.061 3555.38 459.536 3536.57 437.41C3517.75 415.28 3499.24 392.485 3485.35 374.179C3478.42 365.034 3472.6 356.955 3468.46 350.612C3466.4 347.447 3464.71 344.642 3463.51 342.312C3462.91 341.147 3462.39 340.035 3462.01 339.012C3461.65 338.049 3461.3 336.891 3461.24 335.711L3461.23 335.593V335.474C3461.23 332.224 3463.12 329.489 3465.05 327.487C3467.09 325.365 3469.87 323.337 3473.05 321.46C3479.45 317.69 3488.16 314.138 3497.84 311.499L3497.85 311.496L3497.86 311.493C3584.98 288.261 3623.18 201.735 3580.53 130.367C3562.97 101.51 3544.44 83.5302 3516.87 72.4644C3489.01 61.2772 3451.54 56.9956 3395.7 56.5694ZM3521.33 351.032C3521.33 351.033 3521.35 351.02 3521.39 350.994C3521.35 351.019 3521.33 351.031 3521.33 351.032Z" fill="white" stroke="white" stroke-width="9"/>
<path d="M3886.86 23.8983L3886.88 23.8911L3886.9 23.884C3912.86 15.5244 3949.58 13.2011 3986.15 15.9978C4022.75 18.7963 4059.84 26.7701 4086.55 39.4684C4174.18 81.1143 4238.5 177.357 4238.5 268.037C4238.5 428.949 4079.55 555.498 3917.33 525.135L3917.33 525.135C3820.28 506.938 3732.53 431.611 3708.95 345.231C3701.92 321.012 3700.25 284.565 3702.61 249.806C3704.96 215.108 3711.41 181.049 3721.23 161.845L3721.23 161.84C3755.11 95.8306 3811.57 48.994 3886.86 23.8983ZM4104.93 100.034L4104.91 100.018L4104.89 100.002C4085.62 84.9247 4055.43 69.0278 4038.17 64.0871C4018.25 58.6972 3989.06 56.1451 3960.48 56.5686C3931.81 56.9933 3904.48 60.4021 3888.15 66.5261L3888.14 66.5306C3728.16 125.999 3689.89 320.776 3816.14 431.972L3816.14 431.974C3908.19 513.149 4047.17 506.51 4133.47 418.546C4224.52 324.981 4211.32 181.29 4104.93 100.034Z" fill="white" stroke="white" stroke-width="9"/>
<path d="M2089.06 269.708C2089.92 362.742 2089.92 424.286 2088.74 463.44C2088.15 482.999 2087.27 497.103 2086.03 506.798C2085.41 511.637 2084.68 515.523 2083.81 518.501C2082.99 521.286 2081.84 524.035 2079.87 525.782L2079.76 525.88L2079.64 525.971C2075.71 529.027 2071.34 531.478 2066.83 530.693C2062.01 529.855 2059.23 525.797 2057.4 521.685L2057.25 521.328L2057.15 520.949C2056.83 519.666 2056.54 516.95 2056.24 513.513C2055.93 509.881 2055.57 504.968 2055.19 498.939C2054.41 486.875 2053.5 470.256 2052.54 450.29C2050.62 410.354 2048.48 356.975 2046.78 299.756L2040.36 103.422L1886.71 308.289C1815.03 404.299 1766.03 466.58 1736.51 498.783C1729.12 506.843 1722.87 513.104 1717.74 517.565C1712.8 521.866 1708.34 524.999 1704.58 526.015C1702.6 526.553 1700.05 526.697 1697.77 525.197C1695.53 523.72 1694.63 521.359 1694.29 519.384C1693.63 515.586 1694.48 510.293 1696.08 504.201L1696.1 504.126L1696.12 504.053C1696.45 502.956 1697.17 501.595 1697.9 500.328C1698.7 498.918 1699.78 497.147 1701.12 495.058C1703.78 490.871 1707.53 485.257 1712.23 478.406C1721.64 464.694 1734.92 445.909 1751.09 423.437C1783.44 378.486 1827.42 318.708 1875.24 255.094C1930.31 181.665 1975.17 123.565 2007.45 83.805C2023.58 63.9346 2036.61 48.5874 2046.24 38.1834C2051.04 32.9928 2055.06 28.9481 2058.25 26.1705C2059.83 24.7884 2061.31 23.6312 2062.64 22.7941C2063.76 22.088 2065.52 21.1068 2067.49 21.1068C2069.75 21.1068 2072.32 21.5184 2074.7 23.2347C2077.02 24.9005 2078.64 27.4137 2079.87 30.5328C2082.26 36.6056 2083.83 46.7287 2085 63.167C2087.36 96.3172 2088.21 157.53 2089.06 269.708ZM2089.06 269.708C2089.06 269.706 2089.06 269.705 2089.06 269.703L2084.57 269.744L2089.06 269.71C2089.06 269.71 2089.06 269.709 2089.06 269.708Z" fill="white" stroke="white" stroke-width="9"/>
<path d="M3055.33 309.996L3055.33 309.997C2982.38 407.689 2936.35 466.788 2908.53 497.079C2901.56 504.666 2895.66 510.534 2890.7 514.777C2885.84 518.936 2881.52 521.861 2877.74 523.095C2875.79 523.73 2873.67 524.025 2871.56 523.516C2869.34 522.98 2867.62 521.665 2866.41 519.938C2864.23 516.837 2863.69 512.38 2863.69 507.907C2863.69 506.846 2864.02 505.895 2864.2 505.406C2864.43 504.783 2864.73 504.111 2865.07 503.425C2865.75 502.044 2866.72 500.314 2867.93 498.292C2870.35 494.232 2873.88 488.726 2878.39 481.975C2887.4 468.459 2900.42 449.767 2916.5 427.289C2948.64 382.327 2993.06 322.113 3042.16 257.638C3098.08 183.356 3143.58 124.835 3176.06 84.9723C3192.3 65.0494 3205.33 49.7355 3214.81 39.4324C3219.54 34.2934 3223.47 30.3174 3226.5 27.6235C3228.01 26.2867 3229.41 25.165 3230.66 24.3669C3231.29 23.9684 3231.98 23.5801 3232.71 23.2944C3233.38 23.0331 3234.47 22.7001 3235.75 22.8419L3236.01 22.8708L3236.26 22.9296C3241.76 24.199 3244.54 29.3598 3246.33 36.3278C3248.21 43.6128 3249.56 54.9845 3250.63 72.2794C3252.77 106.988 3253.84 166.874 3255.12 268.835L3255.12 268.848L3255.12 268.862C3255.54 334.605 3255.54 395.665 3255.12 441.046C3254.9 463.732 3254.58 482.524 3254.15 496.032C3253.94 502.78 3253.7 508.249 3253.43 512.24C3253.29 514.23 3253.14 515.904 3252.98 517.207C3252.86 518.226 3252.67 519.575 3252.26 520.615C3251.37 523.059 3250.34 525.342 3249.01 527.127C3247.6 529.01 3245.58 530.675 3242.77 531.042C3240.13 531.386 3237.68 530.459 3235.61 529.268C3233.54 528.077 3231.33 526.323 3228.95 524.17C3225.12 521.179 3222.81 515.79 3221.11 508.24C3219.34 500.344 3218.01 488.984 3217 472.872C3214.96 440.6 3214.11 388.394 3213.68 304.766L3213.68 304.755V304.743C3213.68 248.424 3213.25 196.805 3212.61 159.063C3212.29 140.188 3211.92 124.804 3211.52 114.044C3211.42 111.279 3211.32 108.831 3211.21 106.713C3209.32 108.955 3207.06 111.709 3204.43 114.95C3195.96 125.395 3183.9 140.729 3169.13 159.82C3139.6 197.994 3099.28 251.111 3055.33 309.996Z" fill="white" stroke="white" stroke-width="9"/>
</svg>
