
<svg
    aria-hidden="true" 
    xmlns="http://www.w3.org/2000/svg"
    viewBox="0 0 30 30"
>
    <g>
        <path
            fill="#e01e5a"
            d="M6.30293 18.9576C6.30293 20.6922 4.88599 22.1091 3.15147 22.1091C1.41694 22.1091 0 20.6922 0 18.9576C0 17.2231 1.41694 15.8062 3.15147 15.8062H6.30293V18.9576ZM7.89088 18.9576C7.89088 17.2231 9.30782 15.8062 11.0423 15.8062C12.7769 15.8062 14.1938 17.2231 14.1938 18.9576V26.8485C14.1938 28.5831 12.7769 30 11.0423 30C9.30782 30 7.89088 28.5831 7.89088 26.8485V18.9576Z"
        />
        <path
            fill="#36c5f0"
            d="M11.0423 6.30293C9.30782 6.30293 7.89088 4.88599 7.89088 3.15147C7.89088 1.41694 9.30782 0 11.0423 0C12.7769 0 14.1938 1.41694 14.1938 3.15147V6.30293H11.0423ZM11.0423 7.89088C12.7769 7.89088 14.1938 9.30782 14.1938 11.0423C14.1938 12.7769 12.7769 14.1938 11.0423 14.1938H3.15147C1.41694 14.1938 0 12.7769 0 11.0423C0 9.30782 1.41694 7.89088 3.15147 7.89088H11.0423V7.89088Z"
        />
        <path
            fill="#2eb67d"
            d="M23.697 11.0423C23.697 9.30782 25.114 7.89088 26.8485 7.89088C28.583 7.89088 30 9.30782 30 11.0423C30 12.7769 28.583 14.1938 26.8485 14.1938H23.697V11.0423ZM22.1091 11.0423C22.1091 12.7769 20.6921 14.1938 18.9576 14.1938C17.2231 14.1938 15.8062 12.7769 15.8062 11.0423V3.15147C15.8062 1.41694 17.2231 0 18.9576 0C20.6921 0 22.1091 1.41694 22.1091 3.15147V11.0423V11.0423Z"
        />
        <path
            fill="#ecb22e"
            d="M18.9576 23.6971C20.6921 23.6971 22.1091 25.114 22.1091 26.8485C22.1091 28.5831 20.6921 30 18.9576 30C17.2231 30 15.8062 28.5831 15.8062 26.8485V23.6971H18.9576ZM18.9576 22.1091C17.2231 22.1091 15.8062 20.6922 15.8062 18.9576C15.8062 17.2231 17.2231 15.8062 18.9576 15.8062H26.8485C28.583 15.8062 30 17.2231 30 18.9576C30 20.6922 28.583 22.1091 26.8485 22.1091H18.9576Z"
        />
    </g>
</svg>
