<svg width="4015" height="569" viewBox="0 0 4015 569" fill="none" xmlns="http://www.w3.org/2000/svg">
<path d="M287.966 0.774414C344.446 0.774414 390.66 49.8081 390.66 109.74V211.287C390.66 271.208 344.446 320.228 287.966 320.228H130.803C109.629 338.154 63.6935 377.462 63.6935 377.462V311.961C26.4036 295.58 0 256.56 0 211.287V109.74C0 49.8081 46.2181 0.774414 102.716 0.774414H287.966Z" fill="white"/>
<path d="M583.432 134.963V200.463C620.703 216.844 647.11 255.88 647.11 301.138V402.691C647.11 462.614 600.892 511.65 544.404 511.65H359.152C302.667 511.65 256.451 462.614 256.451 402.685V333.572H300.399C356.898 333.572 401.583 282.413 406.055 223.811L406.193 192.196H516.314C537.48 174.274 583.432 134.963 583.432 134.963Z" fill="white"/>
<path d="M2684.01 86.9336H2522.61V421.374H2601.62V326.775H2684.01C2763.02 326.775 2813.12 280.431 2813.12 206.854C2813.12 133.278 2763.02 86.9336 2684.01 86.9336ZM2680.15 258.454H2601.14V156.211H2680.15C2713.4 156.211 2734.59 176.277 2734.59 207.332C2734.59 238.387 2713.4 258.454 2680.15 258.454Z" fill="white"/>
<path d="M2962.25 426.629C3042.71 426.629 3093.29 376.941 3093.29 303.364C3093.29 229.787 3042.71 180.099 2962.25 180.099C2882.27 180.099 2831.68 229.787 2831.68 303.364C2831.68 376.941 2882.27 426.629 2962.25 426.629ZM2962.25 363.086C2929.01 363.086 2906.84 337.764 2906.84 303.364C2906.84 268.965 2929.01 243.643 2962.25 243.643C2995.97 243.643 3018.13 268.965 3018.13 303.364C3018.13 337.764 2995.97 363.086 2962.25 363.086Z" fill="white"/>
<path d="M3174.94 161.944C3200.96 161.944 3219.26 145.222 3219.26 121.333C3219.26 97.4449 3200.96 80.2451 3174.94 80.2451C3148.92 80.2451 3130.62 97.4449 3130.62 121.333C3130.62 145.222 3148.92 161.944 3174.94 161.944ZM3136.88 421.374H3212.52V185.355H3136.88V421.374Z" fill="white"/>
<path d="M3416.5 180.099C3384.7 180.099 3357.72 192.043 3339.9 213.065L3335.08 185.355H3269.56V421.374H3345.2V297.153C3345.2 265.62 3364.95 243.643 3394.34 243.643C3421.32 243.643 3437.7 261.798 3437.7 292.376V421.374H3513.34V288.076C3513.34 220.232 3475.28 180.099 3416.5 180.099Z" fill="white"/>
<path d="M3718.69 355.919C3710.98 359.741 3700.39 362.608 3691.23 362.608C3674.85 362.608 3664.25 354.008 3664.25 334.419V245.076H3723.51V185.355H3664.25V118.467L3589.09 126.589V185.355H3548.62V245.076H3589.09V334.419C3589.09 402.263 3624.75 426.152 3673.41 426.152C3696.05 426.152 3716.28 422.33 3736.52 412.296L3718.69 355.919Z" fill="white"/>
<path d="M3862.66 427.585C3932.04 427.585 3973.47 397.963 3973.47 349.708C3973.47 303.364 3935.89 278.52 3868.93 273.265C3845.32 270.876 3836.17 266.098 3836.17 256.543C3836.17 244.598 3848.69 239.343 3872.78 239.343C3897.35 239.343 3919.03 244.598 3936.86 254.632L3966.25 204.466C3942.64 189.177 3907.47 179.144 3869.41 179.144C3803.89 179.144 3762.45 209.243 3762.45 256.065C3762.45 299.542 3801 327.731 3861.22 331.075C3888.68 332.986 3898.8 338.719 3898.8 349.708C3898.8 360.697 3887.72 366.43 3867.48 366.43C3837.61 366.43 3804.85 358.308 3781.72 344.453L3752.82 396.052C3781.72 415.641 3818.82 427.585 3862.66 427.585Z" fill="white"/>
<path d="M1090.78 86.9336H806.048V155.255H908.668V421.374H987.68V155.255H1090.78V86.9336Z" fill="white"/>
<path d="M1267.69 185.355L1262.88 213.065C1243.6 192.043 1216.14 180.577 1183.86 180.577C1116.9 180.577 1070.16 230.743 1070.16 303.364C1070.16 375.986 1116.9 426.152 1183.86 426.152C1216.14 426.152 1243.12 414.685 1262.88 393.185L1267.69 421.374H1333.22V185.355H1267.69ZM1201.69 363.086C1168.45 363.086 1145.32 338.719 1145.32 303.364C1145.32 268.009 1168.45 243.643 1201.69 243.643C1235.41 243.643 1258.54 268.009 1258.54 303.364C1258.54 338.719 1235.41 363.086 1201.69 363.086Z" fill="white"/>
<path d="M1389.94 421.374H1465.58V86.9336H1389.94V421.374Z" fill="white"/>
<path d="M1763.99 421.374L1664.27 297.153L1750.02 185.355H1663.78L1597.78 274.698V86.9336H1522.62V421.374H1597.78V327.731L1670.53 421.374H1763.99Z" fill="white"/>
<path d="M1826.04 161.944C1852.06 161.944 1870.36 145.222 1870.36 121.333C1870.36 97.4449 1852.06 80.2451 1826.04 80.2451C1800.02 80.2451 1781.72 97.4449 1781.72 121.333C1781.72 145.222 1800.02 161.944 1826.04 161.944ZM1787.98 421.374H1863.62V185.355H1787.98V421.374Z" fill="white"/>
<path d="M2067.6 180.099C2035.8 180.099 2008.82 192.043 1991 213.065L1986.18 185.355H1920.66V421.374H1996.3V297.153C1996.3 265.62 2016.05 243.643 2045.44 243.643C2072.42 243.643 2088.8 261.798 2088.8 292.376V421.374H2164.44V288.076C2164.44 220.232 2126.38 180.099 2067.6 180.099Z" fill="white"/>
<path d="M2416.49 382.674C2447.33 363.564 2465.15 332.986 2465.15 297.631C2465.15 271.831 2457.44 251.287 2441.06 232.654L2472.86 195.866L2417.45 156.211L2389.51 190.61C2373.13 182.966 2354.82 179.144 2335.55 179.144C2258.95 179.144 2204.99 228.354 2204.99 297.631C2204.99 370.252 2256.54 417.074 2336.03 417.074C2370.24 417.074 2389.03 430.929 2389.03 454.818C2389.03 478.229 2367.35 493.995 2335.07 493.995C2299.42 493.995 2279.18 476.318 2280.63 444.785H2207.88C2201.13 511.673 2252.68 557.061 2335.07 557.061C2415.05 557.061 2467.08 517.884 2467.08 457.685C2467.08 423.763 2448.77 397.008 2416.49 382.674ZM2335.55 353.53C2302.31 353.53 2279.66 331.075 2279.66 297.631C2279.66 264.187 2301.83 242.209 2335.55 242.209C2369.28 242.209 2391.44 264.187 2391.44 297.631C2391.44 331.075 2369.28 353.53 2335.55 353.53Z" fill="white"/>
</svg>
