<svg width="1247" height="285" viewBox="0 0 1247 285" fill="none" xmlns="http://www.w3.org/2000/svg">
<path d="M36.9405 4.54746C23.6223 10.3945 7.05582 29.5596 2.83299 44.502C0.234322 52.6228 -0.415345 89.0041 0.234322 153.321C1.20882 244.599 1.53366 250.122 8.03032 258.567C11.6035 263.44 18.425 270.586 23.2975 274.159C35.3163 282.93 67.7997 284.879 90.8629 278.057C118.149 269.936 118.474 269.287 112.302 252.72C103.207 229.982 103.207 229.657 89.5635 235.504C72.997 242.326 62.6023 241.676 56.7553 233.23C52.5325 227.383 51.558 215.04 51.558 166.639V107.52L76.2453 106.545L100.933 105.571L107.105 86.0807C110.353 75.3612 113.276 66.2658 113.276 65.6161C113.276 65.2913 99.3085 64.9665 82.4172 64.9665H51.558V32.4831C51.558 14.6173 50.5835 -0.000203939 49.2842 -0.000203939C47.66 0.324629 42.1378 2.27363 36.9405 4.54746Z" fill="white"/>
<path d="M712.269 4.87287C698.626 11.0447 682.709 29.5602 678.811 44.5025C673.938 61.7187 674.263 232.906 678.811 247.199C683.683 261.491 693.753 272.536 706.747 278.058C721.689 284.554 751.898 283.58 772.688 275.784C782.433 272.211 792.178 268.962 794.452 268.962C798.35 268.638 797.05 264.09 785.681 239.403C781.458 230.632 774.637 228.033 771.064 233.556C770.089 235.505 762.618 237.778 754.172 239.078C740.854 241.027 738.255 240.377 733.058 233.88C727.861 227.384 727.211 219.913 727.211 166.965V107.52L751.898 106.546L776.586 105.571L782.758 86.0812C786.006 75.3617 788.929 66.2664 788.929 65.6167C788.929 65.2919 774.962 64.967 758.07 64.967H727.211V32.4837C727.211 14.6179 726.237 0.000373982 724.937 0.325207C723.313 0.325207 717.791 2.59904 712.269 4.87287Z" fill="white"/>
<path d="M821.737 26.6367C831.158 41.579 852.272 75.3617 868.838 101.673C885.73 127.985 899.373 150.723 899.373 151.697C899.373 152.672 897.099 151.697 894.175 149.099C889.952 145.85 888.653 145.85 886.054 149.748C881.832 156.245 882.481 170.213 887.029 174.761C898.723 186.455 925.359 171.512 925.359 153.322C925.359 141.952 920.812 137.405 907.493 135.781C894.175 134.481 891.577 121.488 904.245 118.24C930.232 111.743 951.346 126.685 951.346 151.373C951.346 169.238 945.499 180.932 930.557 193.926C892.226 227.709 846.425 191.002 870.138 145.85C876.959 132.207 875.335 123.112 866.889 128.309C858.768 133.182 847.399 164.041 847.399 180.283C847.399 220.562 887.029 242.651 926.983 224.46C941.926 217.639 963.04 195.875 969.537 179.958C976.683 162.742 975.384 136.105 966.613 123.112C952.97 102.648 937.053 98.4248 897.748 104.597C892.876 105.246 891.252 103.622 891.252 97.7752C891.252 87.7053 906.519 81.8583 931.856 81.5335C975.384 81.2087 1005.92 114.017 1002.34 157.544C998.122 211.467 947.773 259.867 895.799 259.867C829.209 259.867 803.547 184.506 849.348 124.087C855.52 116.291 856.819 112.068 854.221 109.469C845.125 100.374 817.839 144.551 811.668 178.334C799.324 244.275 849.348 295.274 913.665 282.605C956.218 274.16 991.95 246.224 1012.41 204.97C1023.46 182.557 1024.43 178.334 1024.43 152.997C1024.43 122.138 1020.21 110.769 1002.02 91.6033C978.957 66.5912 943.55 59.12 905.869 71.1388C894.5 74.712 884.755 77.3107 884.43 76.9858C884.105 76.661 879.883 59.12 875.335 38.0058L866.24 0.000323252H835.705H805.171L821.737 26.6367Z" fill="white"/>
<path d="M238.337 60.0948C236.713 60.7445 231.191 62.0438 226.318 63.0183C221.771 63.9928 211.051 70.1647 202.93 76.3365L187.988 87.7057L185.389 76.9862C182.791 66.5915 182.466 66.5915 161.027 65.617L139.263 64.6425V172.162V279.357H165.25H191.236V203.346V127.011L203.255 117.915C212.675 110.769 218.522 108.82 231.516 108.82C240.611 108.82 250.031 109.47 252.305 110.444C255.878 112.068 272.445 78.6103 272.445 69.515C272.445 66.5915 247.108 57.4962 242.56 58.7955C241.91 58.7955 240.286 59.4452 238.337 60.0948Z" fill="white"/>
<path d="M559.273 61.719C524.515 68.8653 503.076 92.2533 503.076 123.437C503.076 140.329 507.949 152.347 519.643 164.366C528.738 173.786 538.158 178.984 575.189 194.576C594.355 202.372 603.125 214.715 597.928 226.085C590.457 242.326 556.349 245.25 525.165 232.581C514.77 228.358 506.325 225.11 506.325 225.76C506.325 226.085 502.752 234.855 498.204 244.925L490.083 263.44L508.599 272.211C525.815 280.007 531.012 280.981 564.795 280.981C607.673 280.981 622.29 275.784 638.532 254.345C646.653 243.626 647.627 239.728 647.627 217.964C647.627 197.174 646.328 191.652 639.831 182.557C631.061 169.888 615.794 160.143 589.807 149.749C579.412 145.526 567.393 139.354 563.171 135.781C552.776 127.66 552.126 112.393 561.871 106.871C571.616 101.998 602.151 102.648 621.641 108.82C630.736 111.418 638.207 113.692 638.857 113.692C639.182 113.692 639.506 103.622 639.506 91.2788V68.8653L624.239 65.617C600.202 60.0948 574.215 58.7955 559.273 61.719Z" fill="white"/>
<path d="M1117.99 63.0183C1067.96 75.362 1040.03 118.565 1042.95 178.334C1045.87 239.078 1080.63 278.383 1135.2 281.956C1204.07 286.504 1251.17 235.83 1245.97 162.093C1243.05 118.565 1224.21 88.0305 1190.75 71.7888C1166.71 60.0948 1141.37 57.1713 1117.99 63.0183ZM1168.01 110.444C1187.5 122.138 1197.24 154.946 1191.72 189.379C1186.2 223.486 1165.74 242.976 1139.1 239.403C1113.11 235.83 1098.82 216.665 1095.25 180.933C1092 146.501 1105.97 113.692 1126.76 106.221C1137.8 102.323 1157.94 104.272 1168.01 110.444Z" fill="white"/>
<path d="M289.336 146.825C290.31 227.058 290.635 229.332 298.431 244.924C310.45 268.637 326.692 280.331 349.755 281.955C372.168 283.579 390.684 279.032 407.575 267.663C419.269 259.542 420.244 259.542 424.142 265.064C426.416 268.312 428.365 272.86 428.365 275.134C428.365 278.057 434.536 279.357 451.428 279.357C473.841 279.357 474.491 279.032 472.542 271.885C471.567 267.987 470.593 219.912 470.593 164.69V64.9666H444.606H418.62V141.952V219.262L407.25 227.058C400.429 231.606 389.06 235.504 379.964 236.479C365.997 237.778 363.073 236.803 353.328 228.033L342.284 218.288L341.309 141.627L340.335 64.9666H314.348H288.361L289.336 146.825Z" fill="white"/>
</svg>
