<svg width="172" height="63" viewBox="0 0 172 63" fill="none" xmlns="http://www.w3.org/2000/svg">
<path d="M0 31.3384V62.6777H71.8804C120.635 62.6777 143.887 62.6643 144.161 62.6328C146.821 62.3273 149.292 60.9614 150.811 58.9485C151.085 58.5845 171.838 31.5811 172 31.3834C172.022 31.3564 168.086 26.2118 162.192 18.5556C156.777 11.5239 151.929 5.21563 151.417 4.53717C150.366 3.13982 150.105 2.84328 149.49 2.33106C148.025 1.09996 146.237 0.313667 144.372 0.0710411C143.864 0.00364304 137.444 -0.000850677 71.9074 -0.000850677H0V31.3384ZM144.228 4.74834C144.907 4.91908 145.455 5.15722 145.949 5.4897C146.286 5.71885 146.785 6.18613 146.951 6.43325C147.144 6.71632 152.001 13.0066 159.536 22.7207C163.202 27.4474 166.199 31.325 166.199 31.3384C166.199 31.3474 161.881 36.9323 156.607 43.7484C151.327 50.5644 146.96 56.2077 146.897 56.2886C146.834 56.3694 146.695 56.4997 146.592 56.5806C146.484 56.6615 146.259 56.8412 146.088 56.985C145.594 57.3984 144.871 57.7353 144.026 57.9465C143.729 58.0184 140.045 58.0274 74.1944 58.0364L4.67281 58.0499V31.3384V4.62703L74.2618 4.64051L143.846 4.6495L144.228 4.74834Z" fill="white"/>
<path d="M123.822 17.3862C120.583 17.7501 117.537 19.1744 115.268 21.376C112.904 23.672 111.516 26.4712 111.147 29.6703C111.044 30.5689 111.08 32.3841 111.219 33.2872C111.466 34.9227 111.893 36.3021 112.572 37.6635C114.553 41.6443 118.116 44.3582 122.519 45.2388C123.49 45.432 124.276 45.5039 125.44 45.5039C126.532 45.5039 127.102 45.459 128.001 45.3017C133.842 44.2863 138.479 39.8291 139.611 34.1409C139.867 32.8604 139.935 31.1126 139.782 29.8275C139.274 25.64 137.081 22.0141 133.685 19.754C131.811 18.5095 129.798 17.7546 127.475 17.4221C126.743 17.3188 124.595 17.2963 123.822 17.3862ZM126.518 21.9017C128.297 22.0904 130.135 22.8093 131.595 23.8922C132.076 24.2516 132.921 25.1008 133.307 25.6265C134.997 27.8955 135.513 30.6722 134.79 33.5523C134.183 35.9471 132.678 37.9465 130.495 39.2495C127.74 40.894 124.159 41.0917 121.203 39.7617C118.565 38.5756 116.566 36.2616 115.888 33.6107C115.321 31.3911 115.609 28.9514 116.683 26.8531C117.24 25.7658 118.026 24.7728 118.916 24.027C120.893 22.369 123.638 21.6007 126.518 21.9017Z" fill="white"/>
<path d="M20.377 20.3721V22.7534H24.9599H29.5429V33.7839V44.8145H31.8568H34.1707L34.1797 33.7929L34.1932 22.7759L38.8346 22.7624L43.4714 22.7534V20.3721V17.9907H31.9242H20.377V20.3721Z" fill="white"/>
<path d="M49.9785 26.7626C49.9785 32.3116 49.9965 35.8072 50.0234 36.1891C50.2661 39.4152 51.5376 41.6662 54.0672 43.3556C55.5365 44.3351 57.3157 44.9596 59.4814 45.2517C60.3261 45.364 62.9276 45.364 63.8846 45.2517C66.9938 44.8788 69.3392 43.9172 70.9927 42.3312C72.2103 41.163 73.1584 39.4556 73.5178 37.7932C73.7739 36.6205 73.7604 37.0338 73.7784 27.0996L73.7964 17.9472H71.4555H69.1191V26.6368C69.1191 34.1043 69.1101 35.4028 69.0517 35.8432C68.6428 38.9793 66.8456 40.3093 62.8063 40.48C62.0559 40.5115 60.708 40.4486 59.9397 40.3407C56.844 39.9184 55.2804 38.6918 54.8445 36.3509C54.7726 35.978 54.7637 35.1782 54.7547 26.9424L54.7367 17.9472H52.3599H49.9785V26.7626Z" fill="white"/>
<path d="M81.4023 31.4026V44.8145H83.7837H86.165L86.174 39.9484L86.1875 35.0869L90.5952 35.0734L95.0029 35.0645L97.7078 39.9035C99.1995 42.5679 100.431 44.7605 100.449 44.783C100.467 44.801 101.675 44.81 103.14 44.8055L105.795 44.792L102.969 39.8271C101.415 37.0998 100.156 34.8533 100.174 34.8353C100.192 34.8218 100.336 34.7634 100.498 34.7095C101.617 34.3186 102.884 33.4559 103.675 32.5528C105.067 30.9578 105.8 28.9089 105.8 26.595C105.8 22.4254 103.423 19.2398 99.5994 18.2828C98.4806 17.9997 99.0467 18.0177 89.8179 18.0042L81.4023 17.9862V31.4026ZM98.175 22.7309C99.3702 22.9376 100.278 23.5756 100.75 24.5282C101.069 25.1797 101.14 25.5211 101.14 26.3928C101.14 27.0488 101.127 27.1881 101.024 27.5835C100.956 27.8306 100.808 28.226 100.696 28.4596C100.52 28.8146 100.417 28.9539 100.094 29.2729C99.7701 29.5964 99.6398 29.6952 99.2848 29.866C99.0512 29.9828 98.6873 30.1176 98.4761 30.176L98.0942 30.2748L92.1318 30.2883L86.165 30.3018V26.4827V22.6635H91.9791C96.9305 22.6635 97.847 22.6725 98.175 22.7309Z" fill="white"/>
</svg>
