<svg width="572" height="110" viewBox="0 0 572 110" fill="none" xmlns="http://www.w3.org/2000/svg">
<path d="M265.721 3.73258C261.321 9.59925 249.588 16.7992 238.921 19.9992C231.454 22.2659 229.321 23.4659 229.588 25.1992C229.854 26.6659 231.721 27.4659 236.254 27.7326L242.521 28.1326L242.921 62.6659L243.321 97.0659L246.654 100.666C252.254 106.666 257.188 108.533 267.988 108.533C278.788 108.666 286.254 105.866 293.721 98.9326C298.254 94.6659 298.521 91.3326 294.388 92.5326C285.988 94.9326 279.988 94.9326 276.654 92.7992L273.321 90.6659V59.3326V27.9992H281.854C293.188 27.9992 297.321 26.3992 297.321 21.9992C297.321 18.6659 297.321 18.6659 285.321 18.6659H273.321V9.33258C273.321 1.19925 273.054 -0.000750367 270.921 -0.000750367C269.588 -0.000750367 267.188 1.73258 265.721 3.73258Z" fill="white"/>
<path d="M331.988 16.1334C316.121 19.2 305.054 28.6667 304.788 39.3334C304.654 47.2 308.521 51.3334 315.854 51.3334C323.188 51.3334 326.121 48.1334 328.521 37.7334C330.921 27.0667 333.454 24 339.988 24C343.588 24 345.721 24.9334 348.654 28C351.854 31.3334 352.521 33.2 353.054 41.8667C353.588 49.7334 353.321 52 351.854 52.4C350.788 52.6667 345.188 53.8667 339.321 54.9334C313.454 59.8667 300.654 72.8 303.988 90.8C305.321 98.1334 308.921 102.667 316.121 106.4C326.388 111.867 339.988 109.2 349.054 100C353.854 95.3334 354.654 95.0667 354.654 98.5334C354.654 101.867 361.454 107.467 366.654 108.667C372.388 109.867 380.521 108.267 385.588 104.8C391.721 100.8 391.988 97.6 386.388 97.0667L381.988 96.6667L381.321 65.3334C380.521 30.5334 380.121 28.6667 371.321 22C362.654 15.3334 347.588 13.0667 331.988 16.1334ZM353.321 74V90.6667L349.054 93.3334C337.054 100.667 327.988 92.6667 329.321 76C329.854 69.0667 336.521 62.1334 345.321 59.3334C348.654 58.4 351.721 57.4667 352.388 57.4667C352.921 57.3334 353.321 64.8 353.321 74Z" fill="white"/>
<path d="M430.254 16.1325C412.654 20.2658 399.321 35.0659 395.854 54.3992C392.121 74.2659 401.721 95.3325 418.254 103.733C429.588 109.599 447.054 109.999 457.188 104.666C463.054 101.733 470.521 94.9325 472.788 90.3992C474.521 87.0659 474.521 86.5325 472.788 85.8659C471.588 85.4659 468.654 86.3992 465.988 87.9992C460.121 91.5992 447.588 92.9325 440.921 90.7992C434.521 88.6659 427.054 79.8659 424.521 71.3325C421.721 61.9992 420.654 43.3325 422.521 36.2658C424.521 29.3325 430.121 22.7992 434.654 22.5325C446.121 21.5992 450.921 25.3325 453.188 37.0658C455.054 46.5325 457.454 50.1325 462.788 51.3325C479.588 55.0659 482.654 30.2658 466.388 20.9325C456.654 15.3325 441.988 13.3325 430.254 16.1325Z" fill="white"/>
<path d="M513.321 16.1331C505.321 17.7331 493.988 23.4664 490.654 27.5998C482.254 38.3998 485.854 51.3331 497.321 51.3331C504.521 51.3331 507.454 47.9998 509.854 37.7331C512.254 27.0664 514.788 23.9998 521.321 23.9998C524.921 23.9998 527.054 24.9331 529.988 27.9998C533.454 31.7331 533.988 33.1998 534.388 41.9998C534.788 49.5998 534.521 52.1331 533.188 52.3998C532.121 52.7998 526.521 53.8664 520.654 54.9331C500.388 58.7998 488.121 67.4664 485.588 79.5998C482.921 91.7331 487.054 100.933 497.454 106.4C507.721 111.866 521.321 109.2 530.521 99.8664C532.921 97.5998 534.921 95.8664 535.054 96.1331C535.321 96.3998 536.121 98.2664 537.054 100.266C541.188 110.133 558.121 112 568.521 103.866C573.321 100.133 572.921 97.5998 567.721 97.0664L563.321 96.6664L562.654 65.3331C561.854 30.5331 561.454 28.6664 552.654 21.9998C543.988 15.3331 528.921 13.0664 513.321 16.1331ZM534.654 74.7998V90.6664L530.388 93.3331C523.854 97.3331 518.254 96.7998 514.121 91.8664C511.188 88.5331 510.654 86.3998 510.654 79.8664C510.654 72.6664 511.054 71.5998 515.454 66.6664C519.988 61.7331 530.921 56.6664 533.721 58.2664C534.254 58.5331 534.654 65.9998 534.654 74.7998Z" fill="white"/>
<path d="M175.054 17.8664C162.388 21.8664 151.454 32.2664 146.654 44.7998C142.788 55.1998 143.321 73.0664 147.854 83.4664C156.388 102.933 178.388 113.066 199.721 107.333C207.321 105.2 209.721 103.733 216.254 97.3331C223.454 89.9998 227.588 82.1331 225.321 79.5998C224.788 78.9331 221.454 80.5331 218.121 83.1998C203.588 94.2664 186.788 92.7998 177.321 79.7331C175.054 76.6664 173.721 73.7331 174.254 73.1998C174.921 72.7998 184.921 67.9998 196.654 62.7998C208.254 57.5998 219.321 51.9998 220.921 50.3998C224.521 46.9331 225.054 37.9998 222.121 32.1331C215.321 19.0664 193.054 12.2664 175.054 17.8664ZM192.521 25.4664C199.588 31.0664 203.321 43.0664 199.988 49.4664C197.988 53.0664 171.854 65.9998 170.654 63.9998C167.054 58.2664 168.388 38.1331 172.788 30.7998C177.454 22.9331 186.254 20.5331 192.521 25.4664Z" fill="white"/>
<path d="M1.7209 19.5997C-1.34577 20.7997 -0.14577 23.5997 3.98756 25.333C8.25423 27.0663 6.65423 23.5997 31.1876 87.0663C38.5209 105.733 40.7876 109.333 45.5876 109.333C46.5209 109.333 48.1209 108.8 49.0542 108.266C49.8542 107.6 55.5876 93.733 61.4542 77.1997C67.4542 60.7997 72.5209 47.0663 72.7876 46.7997C73.8542 45.5997 75.1876 48.533 85.9876 76.6663C92.1209 92.533 97.8542 106.4 98.7876 107.466C100.521 109.6 107.454 110 108.521 108.133C108.921 107.466 115.321 89.333 122.654 67.8663C129.988 46.3997 137.054 27.733 138.254 26.3997C139.454 25.0663 141.454 23.9997 142.921 23.9997C145.854 23.9997 146.121 20.533 143.188 19.4663C139.721 18.133 117.321 18.533 114.521 20.133C111.321 21.8663 112.388 23.9997 116.521 23.9997C118.254 23.9997 121.054 25.0663 122.654 26.3997L125.588 28.7997L121.321 42.6663C114.254 66.2663 113.188 69.333 111.854 69.333C111.188 69.333 110.654 68.6663 110.654 67.8663C110.654 64.6663 94.5209 20.7997 93.0542 19.733C90.1209 17.9997 76.3876 18.533 74.3876 20.533C73.3209 21.5997 68.6542 33.1997 63.9876 46.533C59.1876 59.8663 55.0542 70.6663 54.6542 70.6663C53.9876 70.6663 39.9876 29.5997 39.9876 27.5997C39.9876 26.933 42.1209 25.5997 44.7876 24.533C48.6542 22.933 49.3209 22.2663 47.9876 20.6663C46.6542 19.0663 42.1209 18.6663 24.7876 18.7997C13.0542 18.7997 2.5209 19.1997 1.7209 19.5997Z" fill="white"/>
</svg>
