<svg width="3079" height="507" viewBox="0 0 3079 507" fill="none" xmlns="http://www.w3.org/2000/svg">
<path d="M1782.52 481.63C1772.21 481.63 1761.24 478.405 1761.24 464.865C1761.24 455.838 1766.4 449.39 1780.59 444.877C1799.29 438.428 1803.8 427.469 1803.16 403.612V219.853C1803.8 195.996 1799.29 185.034 1778.01 177.942C1763.82 173.428 1759.31 167.626 1759.31 157.954C1759.96 144.414 1770.27 141.19 1779.3 141.19L1804.44 141.835H1841.2C1851.51 141.835 1857.32 148.282 1861.19 163.112C1863.12 171.494 1868.28 172.139 1875.37 166.336C1901.16 144.414 1934.69 132.163 1967.58 132.163C2011.43 132.163 2046.87 148.282 2066.87 178.587C2070.08 183.1 2072.67 187.613 2075.89 187.613C2078.48 187.613 2081.05 186.969 2086.22 180.521C2108.78 150.862 2151.32 132.163 2191.31 132.163C2275.13 132.163 2320.26 179.876 2320.26 261.117V403.612C2319.62 427.469 2324.14 438.428 2342.83 444.877C2357.01 449.39 2362.18 455.838 2362.18 464.865C2362.18 478.405 2351.21 481.63 2340.9 481.63H2238.37C2228.07 481.63 2215.81 478.405 2215.81 464.22C2215.81 455.193 2220.97 449.39 2236.45 444.232C2257.08 437.785 2261.58 426.824 2261.58 402.322L2262.23 266.92C2262.87 210.826 2234.52 178.587 2185.51 178.587C2126.19 178.587 2090.72 212.759 2090.72 272.079V403.612C2090.08 427.469 2094.6 438.428 2113.29 444.877C2127.47 449.39 2132.64 455.838 2132.64 464.865C2132.64 478.405 2121.66 481.63 2111.36 481.63H2008.83C1998.52 481.63 1986.27 478.405 1986.27 464.22C1986.27 455.193 1991.43 449.39 2006.9 444.232C2027.54 437.785 2032.04 426.824 2032.04 402.322L2032.69 266.92C2033.35 210.826 2004.97 178.587 1955.96 178.587C1896.65 178.587 1861.19 212.759 1861.19 272.079V402.322C1860.54 426.824 1865.05 437.785 1884.4 444.232C1899.87 449.39 1905.03 455.193 1905.03 464.22C1905.03 478.405 1893.42 481.63 1883.11 481.63H1782.52Z" fill="white"/>
<path d="M1589.28 491.274C1491.27 491.274 1410.03 413.901 1410.03 315.25C1410.03 215.957 1487.4 136.004 1585.41 134.07C1682.13 131.491 1759.5 210.798 1759.5 313.96C1759.5 413.256 1684.7 491.274 1589.28 491.274ZM1470.64 291.394C1470.64 383.596 1529.32 446.139 1599.59 446.139C1655.05 446.139 1698.89 394.558 1698.89 328.79C1698.89 242.391 1642.15 179.204 1573.8 179.204C1515.77 179.204 1470.64 228.851 1470.64 291.394Z" fill="white"/>
<path d="M1200.14 491.301C1102.14 491.301 1046.04 418.441 1046.04 328.172C1046.04 219.852 1126.64 134.097 1231.09 134.097C1253.66 134.097 1276.23 138.611 1285.25 140.545C1293.64 142.479 1298.15 143.769 1301.37 143.769C1306.53 143.769 1309.11 140.545 1309.11 134.097V103.148C1309.76 77.3573 1303.95 65.1066 1277.52 57.3693C1260.11 52.2112 1254.95 45.7635 1254.95 35.4471C1254.95 20.6174 1267.85 17.3936 1279.45 17.3936L1310.4 18.0383H1350.38C1361.34 18.0383 1367.14 23.8412 1367.14 41.25V403.612C1366.49 427.468 1371.01 438.43 1389.71 444.876C1403.89 449.389 1409.05 455.838 1409.05 464.864C1409.05 478.404 1398.09 481.629 1387.77 481.629H1331.03C1318.78 481.629 1315.56 478.404 1312.33 466.154C1309.11 453.26 1300.73 450.034 1291.7 459.061C1270.42 480.339 1232.38 491.301 1200.14 491.301ZM1106.65 315.277C1106.65 375.242 1144.05 444.876 1215.62 444.876C1267.2 444.876 1309.11 411.993 1309.11 372.017V239.195C1309.11 189.547 1295.57 180.521 1231.09 180.521C1155.66 180.521 1106.65 237.26 1106.65 315.277Z" fill="white"/>
<path d="M886.816 491.299C834.59 491.299 775.916 467.443 748.836 439.073C730.783 419.73 733.361 400.387 748.191 385.557C755.284 379.111 762.376 372.663 769.469 372.663C776.561 372.663 779.786 377.821 786.877 387.492C816.537 427.469 853.933 450.035 897.133 450.035C936.464 450.035 962.256 429.402 962.256 400.387C962.256 371.372 942.268 349.451 872.631 338.49C776.561 323.015 744.323 290.777 744.323 237.261C744.323 182.455 799.127 132.163 873.922 132.163C924.214 132.163 975.151 152.796 999.007 183.745C1012.55 200.509 1008.03 216.627 995.139 229.524C987.402 237.261 982.244 241.129 977.731 241.129C973.215 241.129 968.059 237.906 961.611 230.169C933.241 192.772 904.226 174.073 862.96 174.073C826.854 174.073 798.484 196.639 798.484 225.654C798.484 253.381 819.76 269.499 890.686 281.75C979.664 296.58 1016.42 330.753 1016.42 389.427C1016.42 448.1 962.901 491.299 886.816 491.299Z" fill="white"/>
<path d="M605.907 96.0331C594.303 96.0331 587.209 88.2958 587.209 77.3348C587.209 48.9647 607.842 25.7529 635.567 25.7529C663.292 25.7529 683.925 48.9647 683.925 77.3348C683.925 88.2958 676.833 96.0331 665.227 96.0331H605.907ZM579.473 157.931C580.118 144.391 590.434 141.167 599.461 141.167L624.607 141.812H662.003C674.253 141.812 681.347 150.194 681.347 165.668V401.655C680.702 426.8 685.215 437.762 705.848 444.21C721.321 448.723 726.479 455.17 726.479 464.198C726.479 478.383 714.874 481.606 703.913 481.606H602.684C592.367 481.606 581.406 478.383 581.406 464.841C581.406 455.815 586.564 449.368 600.749 444.855C619.449 438.407 623.962 427.445 623.317 403.589V219.829C623.962 195.972 619.449 185.011 598.171 177.919C583.986 173.406 579.473 167.603 579.473 157.931Z" fill="white"/>
<path d="M170.22 486.163C148.942 486.163 145.074 483.583 137.336 468.108C101.874 395.251 68.9904 299.178 47.0684 221.162C39.9757 195.371 32.8833 188.923 18.6984 181.83C5.80294 175.382 0 169.58 0 160.553C0 148.947 7.09248 141.854 23.8566 141.854H131.533C146.363 141.854 152.166 147.657 152.166 159.908C152.166 168.935 145.718 176.027 132.178 179.896C105.098 187.633 99.9395 190.857 106.387 217.292C116.703 262.427 145.718 347.536 174.733 408.145C177.957 414.594 182.47 414.594 185.049 408.79C205.681 360.432 243.724 254.045 254.039 204.397C256.619 191.502 255.974 184.409 235.986 178.606C219.866 174.093 213.42 169.58 213.42 157.974C213.42 147.013 219.866 141.854 233.408 141.854H336.57C349.466 141.854 357.848 148.302 357.848 159.263C357.848 169.58 352.045 174.093 335.925 179.896C317.227 186.988 312.713 192.791 318.517 211.491C339.795 282.415 373.968 359.142 395.889 406.855C399.112 413.949 403.626 415.237 406.851 407.5C422.969 370.749 458.432 263.717 465.525 215.359C468.748 194.726 467.458 185.699 448.115 179.896C427.484 173.448 421.036 168.29 421.036 157.329C421.036 148.302 427.484 141.854 439.734 141.854H538.385C549.989 141.854 557.728 148.947 557.728 159.263C557.728 167.645 551.924 174.093 539.673 179.896C523.555 186.988 516.461 194.726 511.948 216.004C497.118 283.705 462.945 397.184 429.417 468.108C422.326 482.938 419.746 485.518 398.467 485.518C371.388 485.518 370.098 481.65 362.361 467.465C339.15 422.975 300.464 337.864 282.411 284.348C280.475 277.902 275.317 276.612 272.739 284.348C260.487 321.101 225.024 422.975 205.038 468.108C198.59 482.938 196.655 486.163 170.22 486.163Z" fill="white"/>
<path fill-rule="evenodd" clip-rule="evenodd" d="M2609.67 34.8282C2545.59 14.8811 2486.96 83.0019 2504.13 157.446L2565.94 425.444C2583.11 499.888 2681.21 503.637 2710.11 447.194C2754.44 360.579 2829.25 360.579 2869.96 447.194C2897.28 505.303 2996.98 499.888 3014.15 425.444L3075.94 157.446C3093.11 83.0019 3034.49 14.8811 2970.4 34.8282L2875.83 72.8558C2819.8 89.6674 2760.29 89.6674 2704.26 72.8558L2609.67 34.8282Z" fill="white"/>
</svg>
